<?xml version="1.0" standalone="no"?>
<!DOCTYPE svg PUBLIC "-//W3C//DTD SVG 20010904//EN"
 "http://www.w3.org/TR/2001/REC-SVG-20010904/DTD/svg10.dtd">
<svg version="1.0" xmlns="http://www.w3.org/2000/svg"
 width="1397.000000pt" height="350.000000pt" viewBox="0 0 1397.000000 350.000000"
 preserveAspectRatio="xMidYMid meet">
<metadata>
Created by potrace 1.16, written by Peter Selinger 2001-2019
</metadata>
<g transform="translate(0.000000,350.000000) scale(0.100000,-0.100000)"
fill="#000000" stroke="none">
<path d="M1590 2955 l-525 -124 -35 18 c-76 41 -150 35 -211 -16 -56 -48 -75
-135 -45 -207 13 -32 7 -54 -151 -572 -90 -296 -163 -549 -161 -561 2 -14 148
-179 378 -425 l375 -401 1 -62 c2 -117 67 -185 174 -185 84 0 118 23 176 118
1 2 252 62 559 133 l556 129 595 0 595 0 -6 58 c-3 31 -21 280 -40 552 -19
272 -37 525 -41 563 l-6 67 -282 0 -282 0 0 53 c0 63 -22 106 -71 144 -32 25
-45 28 -102 27 -36 -1 -73 -3 -81 -5 -10 -3 -153 142 -399 406 -338 361 -387
410 -415 412 -17 1 -267 -54 -556 -122z m490 9 c0 -4 -9 -38 -20 -75 -67 -230
-55 -206 -100 -213 -28 -4 -55 -19 -86 -48 l-45 -41 -342 73 c-188 40 -351 76
-362 80 -14 5 28 19 135 44 842 198 820 193 820 180z m462 -414 c162 -174 297
-321 301 -327 4 -6 -146 50 -333 125 l-340 136 0 34 c0 43 -25 97 -57 122
l-25 19 37 128 c19 70 38 134 41 142 6 18 -9 33 376 -379z m-1066 19 l341 -72
12 -41 c6 -23 14 -45 16 -51 3 -5 -87 -125 -200 -265 l-206 -255 -67 4 c-37 2
-68 4 -68 5 -1 0 -65 146 -143 324 l-141 323 35 31 c19 16 38 41 41 54 4 17
12 23 23 20 9 -3 169 -37 357 -77z m-557 -48 c7 -5 80 -160 161 -346 l148
-338 -18 -31 c-10 -17 -22 -48 -25 -68 -4 -22 -14 -39 -24 -42 -29 -10 -586
-134 -588 -132 -1 1 64 219 145 484 131 430 149 482 167 482 11 0 26 -4 34 -9z
m1909 -408 c-12 -2 -451 -43 -462 -43 -2 0 -13 16 -25 35 -27 46 -76 75 -126
75 l-40 0 -32 83 c-38 95 -38 95 -18 118 15 15 39 7 366 -125 193 -77 345
-142 337 -143z m-837 217 c23 0 29 -9 61 -89 36 -90 36 -90 15 -108 -25 -23
-47 -74 -47 -111 0 -29 -2 -30 -252 -124 -139 -53 -255 -91 -256 -87 -2 5 90
126 204 270 173 216 212 259 229 255 11 -3 32 -6 46 -6z m889 -310 c0 -5 14
-25 30 -43 17 -19 30 -39 30 -43 0 -24 -285 -943 -291 -936 -3 4 -83 200 -177
437 l-172 429 25 26 c13 14 30 40 36 58 6 18 18 32 27 33 17 0 470 45 485 48
4 0 7 -3 7 -9z m-795 -150 l28 -30 -44 -211 -44 -212 -46 -13 c-26 -8 -52 -21
-59 -29 -10 -13 -39 3 -199 112 -102 69 -190 129 -194 133 -4 4 -3 27 3 51
l11 44 242 91 c133 51 249 92 258 93 8 1 28 -12 44 -29z m303 -472 c94 -238
170 -434 168 -436 -2 -1 -83 45 -180 104 l-176 106 0 57 c0 60 -21 108 -65
146 l-23 20 46 218 c25 119 48 217 52 217 3 0 83 -194 178 -432z m1058 107 c7
-93 15 -209 18 -257 l7 -88 -192 0 c-149 0 -190 3 -186 13 2 6 34 118 71 247
37 129 69 241 71 248 4 9 30 12 102 10 l98 -3 11 -170z m-2201 76 c18 -16 39
-31 46 -33 10 -3 16 -75 25 -304 7 -164 14 -340 17 -391 l4 -92 -29 -12 c-27
-11 -32 -10 -58 17 -160 165 -649 698 -645 703 6 6 566 138 594 140 7 1 28
-12 46 -28z m405 -158 l200 -137 0 -48 c0 -27 7 -63 16 -79 l15 -30 -187 -195
c-102 -107 -189 -194 -192 -194 -3 0 -20 5 -38 12 -42 15 -40 3 -54 403 -6
171 -13 327 -15 347 -5 36 -1 40 53 57 1 1 92 -61 202 -136z m874 -562 c-3 -3
-221 -55 -484 -116 -313 -73 -480 -107 -480 -100 0 7 87 104 194 217 l194 204
64 -4 c48 -2 71 1 97 16 l35 19 192 -116 c106 -63 191 -118 188 -120z"/>
<path d="M3950 1420 l0 -620 180 0 180 0 0 130 0 130 125 0 125 0 0 -130 0
-130 185 0 185 0 0 620 0 620 -490 0 -490 0 0 -620z m563 296 c67 -29 107 -93
107 -172 0 -114 -118 -204 -228 -173 -78 22 -142 105 -142 185 0 42 50 123 93
149 48 29 118 33 170 11z"/>
<path d="M5010 1860 l0 -180 130 0 130 0 0 -440 0 -440 180 0 180 0 0 440 0
440 135 0 135 0 0 180 0 180 -445 0 -445 0 0 -180z"/>
<path d="M5980 1420 l0 -620 180 0 180 0 0 130 0 130 125 0 125 0 0 -130 0
-130 185 0 185 0 0 620 0 620 -490 0 -490 0 0 -620z m563 296 c99 -42 139
-172 80 -263 -66 -102 -198 -118 -283 -33 -85 85 -69 217 33 283 47 31 116 36
170 13z"/>
<path d="M9290 1420 l0 -620 485 0 485 0 0 620 0 620 -485 0 -485 0 0 -620z
m610 0 l0 -260 -125 0 -125 0 0 260 0 260 125 0 125 0 0 -260z"/>
<path d="M7364 2016 c-3 -7 -53 -184 -112 -392 l-108 -379 373 -3 373 -2 0
-40 0 -40 -385 0 -384 0 -17 -57 c-48 -174 -76 -270 -80 -285 -5 -17 29 -18
615 -18 l621 0 0 400 0 400 -325 0 c-195 0 -325 4 -325 9 0 5 4 21 10 35 l10
26 315 0 315 0 0 180 0 180 -445 0 c-368 0 -447 -2 -451 -14z"/>
<path d="M8330 1850 l0 -180 135 0 135 0 0 -435 0 -435 180 0 180 0 0 435 0
435 130 0 130 0 0 180 0 180 -445 0 -445 0 0 -180z"/>
<path d="M10340 1415 l0 -615 180 0 180 0 0 221 0 220 47 -3 46 -3 81 -217 81
-218 182 0 182 0 -28 78 c-16 42 -52 138 -80 213 -28 74 -51 139 -51 142 0 4
36 7 80 7 l80 0 0 395 0 395 -490 0 -490 0 0 -615z m543 394 c52 -14 110 -75
126 -131 17 -59 2 -116 -45 -168 -113 -124 -314 -44 -314 126 0 83 48 144 140
177 24 9 52 8 93 -4z"/>
<path d="M11390 1590 l0 -440 155 0 155 0 0 -175 0 -175 180 0 180 0 0 175 0
175 155 0 155 0 0 440 0 440 -180 0 -180 0 0 -260 0 -260 -130 0 -130 0 0 260
0 260 -180 0 -180 0 0 -440z"/>
</g>
</svg>
