<svg id="svg" version="1.1" xmlns="http://www.w3.org/2000/svg" xmlns:xlink="http://www.w3.org/1999/xlink" width="400" height="94" viewBox="0, 0, 400,94"><g id="svgg"><path id="path0" d="M16.617 26.358 C 15.791 26.820,15.556 28.161,16.124 29.170 C 16.560 29.944,18.141 30.042,18.684 29.328 C 18.856 29.102,19.147 28.764,19.332 28.577 C 20.551 27.343,18.238 25.451,16.617 26.358 M253.358 27.387 C 253.183 27.598,253.209 28.164,253.408 28.486 C 253.991 29.429,254.042 33.941,253.489 35.617 C 253.233 36.392,253.399 36.938,253.929 37.072 C 254.802 37.291,255.351 36.717,255.914 35.000 C 256.079 34.496,256.358 33.877,256.535 33.625 C 256.711 33.373,256.812 33.167,256.759 33.167 C 256.589 33.167,257.159 31.960,257.500 31.599 C 258.729 30.296,259.125 29.989,259.698 29.895 C 260.036 29.839,260.456 29.661,260.630 29.498 C 260.805 29.335,261.372 29.119,261.891 29.018 C 262.409 28.916,263.246 28.753,263.750 28.655 C 264.254 28.556,264.667 28.420,264.667 28.353 C 264.667 28.285,265.023 28.211,265.458 28.189 C 265.894 28.166,266.550 28.079,266.917 27.995 C 267.663 27.823,272.158 27.776,272.574 27.936 C 272.721 27.993,273.031 28.438,273.262 28.926 L 273.681 29.813 273.663 46.032 C 273.643 64.081,273.655 62.720,273.507 62.833 C 273.447 62.879,273.312 63.391,273.207 63.970 C 273.016 65.025,272.432 65.825,271.402 66.441 C 271.139 66.599,271.121 66.672,271.300 66.858 C 271.584 67.154,281.000 67.288,281.000 66.996 C 281.000 66.896,281.070 66.857,281.155 66.910 C 281.240 66.962,281.354 66.935,281.407 66.849 C 281.542 66.630,281.038 66.167,280.664 66.167 C 280.334 66.167,279.833 65.582,279.833 65.197 C 279.833 65.071,279.686 64.761,279.506 64.509 C 278.859 63.600,278.837 62.984,278.831 45.488 C 278.824 26.633,278.744 27.989,279.883 27.739 C 280.367 27.633,280.379 27.612,280.084 27.396 C 279.626 27.062,253.635 27.053,253.358 27.387 M290.532 27.289 C 290.075 27.372,290.134 27.742,290.609 27.767 C 291.514 27.815,292.152 28.049,292.572 28.489 C 292.828 28.755,293.216 29.018,293.435 29.073 C 293.654 29.128,293.833 29.244,293.833 29.331 C 293.833 29.418,294.087 29.773,294.396 30.119 C 295.874 31.775,296.167 32.137,296.167 32.309 C 296.167 32.565,297.165 34.167,297.324 34.167 C 297.396 34.167,297.633 34.523,297.852 34.958 C 298.071 35.394,298.426 35.949,298.641 36.193 C 298.856 36.436,299.034 36.699,299.036 36.776 C 299.043 37.024,299.350 37.740,299.488 37.830 C 299.562 37.878,299.792 38.254,300.000 38.667 C 300.209 39.079,300.556 39.629,300.773 39.888 C 300.989 40.147,301.167 40.497,301.167 40.667 C 301.167 40.836,301.349 41.191,301.573 41.457 C 301.796 41.722,302.033 42.157,302.100 42.424 C 302.167 42.690,302.434 43.244,302.694 43.654 C 302.954 44.063,303.167 44.524,303.167 44.676 C 303.167 44.829,303.392 45.237,303.667 45.583 C 303.942 45.929,304.167 46.393,304.167 46.614 C 304.167 46.834,304.355 47.218,304.586 47.466 C 304.817 47.714,305.069 48.142,305.145 48.417 C 305.222 48.692,305.483 49.208,305.726 49.565 C 305.968 49.921,306.167 50.385,306.167 50.595 C 306.167 50.805,306.279 51.089,306.417 51.226 C 306.554 51.364,306.667 51.579,306.667 51.705 C 306.667 51.830,306.760 52.027,306.875 52.142 C 307.067 52.334,307.187 62.158,307.016 63.750 C 306.963 64.241,306.722 64.835,306.509 65.000 C 306.450 65.046,306.194 65.513,305.940 66.038 C 305.541 66.864,305.390 67.020,304.817 67.191 C 303.861 67.478,304.248 67.691,305.686 67.668 C 309.157 67.614,311.686 67.637,312.583 67.732 C 313.749 67.856,314.689 67.429,313.603 67.270 C 312.943 67.173,311.950 65.783,311.803 64.750 C 311.725 64.200,311.628 63.563,311.589 63.333 C 311.107 60.527,311.610 51.376,312.288 50.625 C 312.433 50.465,312.497 50.333,312.431 50.333 C 312.364 50.333,312.427 50.216,312.571 50.072 C 312.715 49.928,312.882 49.609,312.942 49.363 C 313.002 49.118,313.189 48.738,313.358 48.520 C 313.527 48.302,313.749 47.815,313.850 47.438 C 313.951 47.062,314.206 46.582,314.416 46.372 C 314.626 46.162,314.845 45.748,314.902 45.453 C 314.959 45.158,315.203 44.729,315.445 44.500 C 315.687 44.271,315.991 43.858,316.122 43.583 C 316.253 43.308,316.608 42.633,316.911 42.083 C 317.214 41.533,317.639 40.727,317.855 40.292 C 318.071 39.856,318.296 39.500,318.355 39.500 C 318.413 39.500,318.629 39.087,318.833 38.583 C 319.038 38.079,319.269 37.667,319.346 37.667 C 319.423 37.667,319.693 37.310,319.945 36.875 C 320.198 36.440,320.459 36.060,320.526 36.031 C 320.593 36.002,320.738 35.702,320.848 35.364 C 320.958 35.026,321.225 34.538,321.441 34.279 C 321.657 34.020,321.833 33.727,321.833 33.629 C 321.833 33.392,322.757 32.124,323.542 31.283 C 323.885 30.915,324.167 30.549,324.167 30.470 C 324.167 30.391,324.346 30.245,324.565 30.145 C 324.784 30.045,325.045 29.784,325.145 29.565 C 325.245 29.346,325.432 29.167,325.561 29.167 C 325.691 29.167,326.086 28.909,326.440 28.593 C 327.048 28.052,328.005 27.681,328.865 27.655 C 329.152 27.646,329.081 27.581,328.585 27.400 C 327.901 27.150,314.551 27.124,313.750 27.372 C 313.567 27.428,313.379 27.484,313.333 27.496 C 313.287 27.508,313.783 27.658,314.434 27.829 C 315.941 28.224,317.167 29.050,317.167 29.671 C 317.167 29.913,317.219 30.163,317.283 30.227 C 317.346 30.291,317.414 30.435,317.434 30.546 C 317.453 30.658,317.516 31.002,317.574 31.310 C 317.631 31.617,317.609 31.955,317.525 32.060 C 317.441 32.164,317.287 32.652,317.184 33.144 C 317.080 33.636,316.859 34.236,316.693 34.478 C 316.527 34.719,316.287 35.179,316.160 35.500 C 316.033 35.821,315.757 36.338,315.548 36.648 C 315.338 36.959,315.167 37.305,315.167 37.417 C 315.167 37.529,314.942 37.904,314.667 38.250 C 314.392 38.596,314.167 39.046,314.167 39.250 C 314.167 39.454,313.942 39.904,313.667 40.250 C 313.392 40.596,313.167 41.024,313.167 41.201 C 313.167 41.626,312.854 42.198,312.474 42.468 C 312.305 42.588,312.167 42.759,312.167 42.848 C 312.167 43.458,310.815 45.663,310.250 45.974 C 309.975 46.126,309.730 46.291,309.706 46.341 C 309.412 46.946,306.833 45.176,306.833 44.369 C 306.833 43.928,305.526 41.333,305.250 41.227 C 305.131 41.181,304.985 40.888,304.926 40.577 C 304.868 40.265,304.645 39.801,304.432 39.547 C 304.218 39.292,303.986 38.821,303.917 38.500 C 303.847 38.179,303.614 37.707,303.399 37.451 C 303.185 37.195,302.928 36.684,302.829 36.317 C 302.730 35.950,302.547 35.610,302.423 35.563 C 302.183 35.470,301.879 34.844,301.752 34.179 C 301.709 33.956,301.591 33.723,301.490 33.660 C 301.388 33.597,301.302 33.479,301.299 33.398 C 301.296 33.317,301.236 33.099,301.166 32.914 C 300.685 31.651,300.853 30.218,301.570 29.466 C 301.807 29.218,302.000 28.953,302.000 28.878 C 302.000 28.519,303.014 27.904,303.814 27.778 C 304.734 27.633,304.767 27.392,303.884 27.271 C 303.037 27.154,291.188 27.171,290.532 27.289 M331.519 27.348 C 330.664 27.514,330.442 27.661,331.014 27.680 C 332.343 27.726,333.268 28.065,333.806 28.704 C 334.021 28.958,334.288 29.167,334.399 29.167 C 334.860 29.167,336.152 32.183,336.184 33.333 C 336.200 33.929,336.249 34.479,336.292 34.556 C 336.503 34.930,336.572 38.352,336.573 48.583 C 336.575 60.016,336.519 61.816,336.074 64.583 C 336.030 64.858,335.733 65.383,335.414 65.748 C 335.094 66.114,334.833 66.545,334.833 66.707 C 334.833 66.868,334.721 67.000,334.583 67.000 C 334.446 67.000,334.333 67.083,334.333 67.184 C 334.333 67.286,334.233 67.330,334.110 67.283 C 333.850 67.184,333.376 67.432,333.531 67.586 C 333.588 67.643,334.373 67.681,335.276 67.669 C 339.413 67.614,341.003 67.629,342.124 67.731 C 344.025 67.903,344.875 67.490,343.581 67.022 C 343.258 66.905,343.033 66.748,343.079 66.673 C 343.126 66.598,342.908 66.415,342.595 66.267 C 342.179 66.069,341.994 65.851,341.909 65.457 C 341.845 65.160,341.659 64.728,341.497 64.498 C 340.840 63.569,340.658 61.860,340.655 56.630 C 340.654 53.464,340.749 51.365,340.934 50.512 C 341.045 49.999,342.226 48.840,342.667 48.813 C 343.197 48.779,343.299 48.756,343.409 48.647 C 343.523 48.532,342.308 47.260,341.619 46.774 C 340.742 46.154,340.675 45.522,340.679 37.917 C 340.684 29.986,340.715 29.817,342.333 28.906 C 342.649 28.729,343.046 28.460,343.217 28.309 C 344.064 27.557,349.338 27.693,350.480 28.496 C 350.720 28.664,351.186 28.848,351.515 28.904 C 352.166 29.014,354.167 30.891,354.167 31.392 C 354.167 31.737,354.520 32.500,354.680 32.500 C 354.912 32.500,355.146 33.563,355.237 35.022 C 355.286 35.814,355.390 36.639,355.468 36.856 C 355.605 37.239,355.583 38.401,355.420 39.417 C 355.375 39.692,355.300 40.442,355.251 41.083 C 355.121 42.827,355.044 43.131,354.586 43.732 C 354.355 44.034,354.167 44.408,354.167 44.563 C 354.167 44.718,354.046 45.030,353.897 45.256 C 353.749 45.482,353.656 45.673,353.689 45.680 C 354.248 45.806,354.767 45.827,354.982 45.732 C 355.129 45.667,355.306 45.626,355.375 45.640 C 355.444 45.655,355.501 45.573,355.502 45.458 C 355.503 45.344,355.822 45.101,356.210 44.918 C 356.599 44.736,357.015 44.455,357.134 44.293 C 357.254 44.132,357.428 44.000,357.521 44.000 C 357.779 44.000,358.167 43.556,358.167 43.262 C 358.167 43.118,358.241 43.000,358.332 43.000 C 358.424 43.000,358.658 42.644,358.853 42.208 C 359.048 41.773,359.349 41.117,359.521 40.750 C 359.794 40.168,359.828 39.743,359.785 37.417 L 359.736 34.750 359.124 33.536 C 358.788 32.868,358.397 32.207,358.256 32.066 C 358.115 31.925,358.000 31.704,358.000 31.575 C 358.000 31.445,357.807 31.291,357.571 31.232 C 356.400 30.938,356.615 27.833,357.806 27.833 C 357.975 27.833,358.851 27.944,359.754 28.080 C 360.657 28.215,361.431 28.291,361.474 28.248 C 361.517 28.205,361.646 28.247,361.759 28.341 C 361.955 28.503,362.321 28.617,363.083 28.752 C 363.267 28.785,363.773 28.881,364.208 28.967 C 364.644 29.053,365.000 29.097,365.000 29.065 C 365.000 29.033,365.333 29.193,365.740 29.420 C 366.148 29.647,366.579 29.833,366.699 29.834 C 366.819 29.834,367.254 30.134,367.667 30.500 C 368.079 30.866,368.469 31.166,368.534 31.166 C 368.598 31.167,368.783 31.448,368.943 31.792 C 369.104 32.135,369.445 32.616,369.701 32.859 C 370.053 33.193,370.167 33.457,370.167 33.942 C 370.168 34.321,370.321 34.822,370.541 35.167 C 370.747 35.487,371.034 36.087,371.180 36.500 C 371.423 37.188,371.494 37.253,372.044 37.284 C 372.839 37.329,372.840 37.326,372.800 32.307 C 372.776 29.254,372.820 28.134,372.973 27.950 C 373.138 27.750,373.126 27.649,372.909 27.433 C 372.608 27.132,333.045 27.051,331.519 27.348 M35.353 29.883 C 34.501 30.616,34.142 31.160,34.213 31.616 C 34.283 32.071,35.028 33.000,35.323 33.001 C 35.466 33.002,35.777 33.103,36.014 33.227 C 36.381 33.418,36.493 33.415,36.764 33.208 C 36.940 33.074,37.303 32.869,37.571 32.752 C 38.344 32.414,38.231 30.507,37.415 30.136 C 37.207 30.041,36.961 29.797,36.868 29.593 C 36.624 29.057,36.226 29.134,35.353 29.883 M52.354 37.046 C 51.762 37.638,52.543 39.833,53.346 39.833 C 54.233 39.833,54.527 42.379,53.747 43.306 C 53.434 43.678,53.289 44.111,53.176 45.010 C 53.093 45.673,52.963 46.260,52.888 46.316 C 52.549 46.564,52.203 47.498,52.115 48.405 C 52.053 49.032,51.887 49.570,51.662 49.876 C 51.452 50.159,51.270 50.713,51.220 51.220 C 51.174 51.695,50.917 52.539,50.651 53.097 C 50.385 53.654,50.166 54.329,50.164 54.597 C 50.163 54.864,49.939 55.721,49.667 56.500 C 49.394 57.279,49.170 58.080,49.169 58.280 C 49.166 58.801,48.727 59.167,48.105 59.167 C 47.433 59.167,47.193 59.396,47.297 59.939 C 47.361 60.273,47.451 60.341,47.730 60.267 C 47.925 60.216,52.484 60.170,57.863 60.165 L 67.642 60.156 67.744 59.695 C 67.878 59.085,67.694 55.281,67.485 54.349 C 67.394 53.945,67.282 53.007,67.236 52.266 C 67.190 51.524,67.122 50.662,67.086 50.352 C 67.049 50.041,66.977 48.841,66.925 47.685 C 66.604 40.552,66.690 41.203,66.057 41.084 C 65.888 41.052,65.712 41.018,65.667 41.009 C 65.621 41.000,63.971 40.991,62.000 40.990 C 58.559 40.988,58.397 40.973,57.936 40.619 C 57.196 40.050,56.667 39.473,56.667 39.237 C 56.667 39.118,56.579 38.811,56.472 38.553 C 56.365 38.294,56.268 38.046,56.256 38.000 C 56.007 37.064,55.650 36.897,54.248 37.062 C 53.757 37.120,53.173 37.097,52.949 37.012 C 52.676 36.908,52.481 36.919,52.354 37.046 M38.707 38.367 C 38.478 38.480,38.256 38.818,38.137 39.234 C 38.031 39.610,37.881 39.988,37.805 40.075 C 37.551 40.366,37.661 40.588,38.500 41.467 C 38.958 41.948,39.333 42.414,39.333 42.504 C 39.333 42.895,40.606 42.675,40.805 42.250 C 40.912 42.021,41.088 41.646,41.195 41.417 C 41.302 41.188,41.452 41.000,41.528 41.000 C 41.604 41.000,41.667 40.700,41.667 40.334 C 41.667 39.021,39.842 37.808,38.707 38.367 M78.880 40.960 C 72.210 41.004,72.175 41.006,71.984 41.363 C 71.677 41.937,71.860 59.287,72.179 59.798 C 72.401 60.155,72.517 60.178,73.971 60.152 C 75.832 60.118,75.833 60.116,75.833 57.834 C 75.833 56.204,76.003 55.850,76.804 55.812 C 77.049 55.800,77.438 55.761,77.667 55.724 C 81.143 55.165,82.862 56.135,82.884 58.667 C 82.890 59.446,82.967 59.807,83.155 59.953 C 83.475 60.202,86.102 60.239,86.252 59.997 C 86.309 59.904,86.426 59.871,86.512 59.924 C 86.606 59.982,86.675 57.496,86.687 53.552 C 86.699 49.994,86.731 45.843,86.760 44.326 C 86.789 42.810,86.761 41.491,86.698 41.395 C 86.428 40.985,85.237 40.919,78.880 40.960 M96.833 40.957 C 89.931 41.005,90.417 40.860,90.417 42.881 C 90.417 44.753,90.341 44.690,92.734 44.785 C 95.426 44.893,95.167 44.076,95.167 52.453 C 95.167 60.828,95.005 60.167,97.056 60.167 C 99.183 60.167,99.000 60.835,99.000 53.075 L 99.000 46.383 99.490 45.707 C 100.053 44.930,100.475 44.790,102.239 44.799 C 103.788 44.806,103.834 44.755,103.831 43.021 C 103.827 40.771,104.279 40.905,96.833 40.957 M107.978 41.292 C 107.680 41.652,107.513 60.115,107.809 59.932 C 107.901 59.875,108.024 59.904,108.082 59.997 C 108.249 60.268,110.612 60.203,111.175 59.912 C 111.645 59.669,111.667 59.609,111.668 58.537 C 111.670 56.075,112.130 55.629,114.663 55.632 C 118.021 55.637,118.367 55.908,118.412 58.560 C 118.436 60.013,118.563 60.112,120.437 60.153 C 121.722 60.181,121.898 60.148,122.116 59.838 C 122.435 59.382,122.469 41.615,122.151 41.232 C 121.824 40.837,108.306 40.894,107.978 41.292 M149.325 41.242 C 149.238 41.329,149.167 42.127,149.167 43.016 C 149.167 44.915,149.077 44.832,151.139 44.836 C 152.781 44.839,152.747 44.824,153.418 45.833 L 153.917 46.583 154.000 53.215 C 154.096 60.868,153.908 60.214,155.981 60.120 C 158.012 60.029,157.859 60.669,157.813 52.462 C 157.767 44.137,157.569 44.835,159.984 44.831 C 160.864 44.829,161.691 44.760,161.823 44.677 C 162.172 44.456,162.297 41.649,161.969 41.377 C 161.672 41.130,149.566 41.000,149.325 41.242 M166.255 41.159 C 166.040 41.506,166.161 59.893,166.379 60.036 C 166.895 60.373,180.346 60.103,180.604 59.750 C 180.944 59.285,180.877 41.643,180.533 41.300 C 180.257 41.023,166.423 40.886,166.255 41.159 M203.403 41.217 C 203.051 41.415,203.051 53.530,203.402 53.822 C 203.553 53.946,204.215 54.006,205.230 53.987 C 207.895 53.938,208.493 54.682,208.495 58.049 L 208.497 59.682 209.076 59.924 C 209.779 60.218,211.687 60.246,211.967 59.967 C 212.078 59.855,212.167 59.320,212.167 58.757 C 212.167 58.202,212.237 57.503,212.323 57.204 C 212.408 56.905,212.415 56.699,212.338 56.747 C 211.992 56.961,212.621 55.576,213.116 55.036 C 213.419 54.706,213.667 54.380,213.667 54.312 C 213.667 54.059,214.462 53.944,215.942 53.982 C 216.921 54.007,217.508 53.955,217.582 53.836 C 217.724 53.605,217.735 41.346,217.592 41.204 C 217.424 41.035,214.436 41.181,214.208 41.369 C 214.054 41.496,214.000 42.450,214.000 45.072 C 214.000 48.373,213.978 48.627,213.667 48.962 C 213.483 49.158,213.333 49.393,213.333 49.484 C 213.333 49.995,212.580 50.167,210.329 50.167 L 208.065 50.167 207.491 49.574 L 206.917 48.982 206.871 45.449 C 206.810 40.767,206.983 41.201,205.153 41.137 C 204.321 41.107,203.533 41.143,203.403 41.217 M132.151 41.277 C 131.783 41.375,131.203 42.612,131.146 43.417 C 131.120 43.783,130.896 44.571,130.648 45.167 C 130.400 45.762,130.144 46.625,130.079 47.083 C 130.015 47.542,129.866 48.142,129.749 48.417 C 129.354 49.344,129.276 49.582,129.232 50.000 C 129.136 50.900,128.783 52.322,128.672 52.254 C 128.608 52.214,128.556 52.284,128.556 52.410 C 128.556 52.599,129.552 52.642,134.283 52.659 C 141.344 52.684,141.251 52.658,141.230 54.614 C 141.212 56.359,141.709 56.243,134.049 56.292 C 130.416 56.316,127.406 56.372,127.360 56.417 C 127.315 56.463,127.219 56.894,127.148 57.375 C 127.077 57.856,126.973 58.438,126.917 58.667 C 126.674 59.668,126.680 59.762,126.999 59.960 C 127.531 60.293,144.790 60.171,145.004 59.833 C 145.358 59.272,145.203 49.369,144.833 49.000 C 144.458 48.624,138.165 48.486,137.251 48.833 C 137.011 48.924,136.850 48.942,136.893 48.872 C 136.936 48.803,136.700 48.758,136.369 48.774 C 135.786 48.801,134.231 48.146,133.961 47.758 C 133.576 47.206,133.987 45.925,134.756 45.283 L 135.315 44.817 140.012 44.828 C 143.300 44.836,144.777 44.782,144.938 44.649 C 145.236 44.402,145.260 41.660,144.967 41.367 C 144.774 41.174,132.846 41.090,132.151 41.277 M184.916 41.335 C 184.858 41.428,184.818 45.609,184.826 50.627 C 184.842 61.138,184.670 60.207,186.583 60.149 C 188.511 60.092,188.522 60.075,188.489 57.184 C 188.449 53.740,188.724 52.955,190.041 52.746 C 191.524 52.510,192.853 53.578,193.107 55.211 C 193.167 55.599,193.430 56.230,193.692 56.613 C 194.018 57.092,194.167 57.518,194.167 57.975 C 194.167 59.681,195.565 60.410,198.039 59.993 C 198.365 59.938,198.617 59.347,198.383 59.188 C 198.298 59.130,198.091 58.562,197.921 57.925 C 197.751 57.288,197.437 56.509,197.223 56.194 C 197.008 55.878,196.826 55.424,196.816 55.185 C 196.745 53.377,196.939 52.938,197.892 52.747 C 198.785 52.568,198.943 52.502,198.990 52.289 C 199.162 51.519,199.161 41.610,198.989 41.403 C 198.746 41.110,185.095 41.044,184.916 41.335 M192.820 42.385 C 192.965 42.506,193.421 42.748,193.833 42.924 C 195.150 43.486,196.046 44.607,196.277 45.981 C 196.382 46.608,196.382 46.651,196.275 47.333 C 196.239 47.563,196.200 47.988,196.188 48.278 C 196.119 49.983,192.685 51.667,190.430 51.102 C 189.582 50.889,188.074 49.185,187.759 48.083 C 187.601 47.533,187.406 46.957,187.325 46.804 C 187.235 46.631,187.244 46.502,187.348 46.467 C 187.442 46.436,187.546 46.262,187.580 46.080 C 187.613 45.899,187.656 45.712,187.674 45.667 C 187.692 45.621,187.697 45.527,187.686 45.458 C 187.676 45.390,187.742 45.333,187.833 45.333 C 187.925 45.333,188.000 45.202,188.001 45.042 C 188.001 44.881,188.264 44.465,188.584 44.116 C 188.905 43.767,189.167 43.423,189.167 43.351 C 189.167 43.279,189.584 43.079,190.095 42.905 C 190.605 42.732,191.102 42.495,191.199 42.378 C 191.428 42.101,192.484 42.106,192.820 42.385 M26.013 43.492 C 25.899 43.562,25.514 43.586,25.156 43.545 C 23.753 43.383,23.054 44.101,23.221 45.534 C 23.395 47.031,24.667 47.709,25.927 46.978 C 26.796 46.475,26.828 46.413,26.829 45.250 C 26.829 43.701,26.572 43.147,26.013 43.492 M117.650 44.729 C 118.066 45.010,118.532 45.365,118.685 45.519 C 118.996 45.830,119.531 47.481,119.393 47.705 C 119.344 47.784,119.393 47.954,119.501 48.084 C 119.653 48.268,119.638 48.440,119.432 48.853 C 119.286 49.145,119.167 49.493,119.167 49.625 C 119.167 50.014,118.645 51.000,118.439 51.000 C 118.335 51.001,118.111 51.207,117.942 51.459 C 117.646 51.899,116.358 52.547,115.250 52.813 C 114.657 52.956,112.170 51.798,112.045 51.322 C 112.005 51.168,111.794 50.946,111.577 50.830 C 111.360 50.714,111.136 50.405,111.078 50.143 C 111.021 49.881,110.923 49.666,110.862 49.666 C 110.800 49.665,110.728 49.309,110.702 48.874 C 110.449 44.697,114.245 42.431,117.650 44.729 M81.684 44.549 C 82.919 45.614,83.000 45.711,83.195 46.361 C 83.298 46.707,83.503 47.124,83.650 47.287 C 83.891 47.554,83.930 47.825,83.857 48.696 C 83.844 48.850,83.718 49.091,83.577 49.232 C 83.437 49.373,83.332 49.510,83.345 49.536 C 83.671 50.193,82.053 52.167,81.189 52.167 C 80.926 52.167,80.505 52.329,80.253 52.528 C 79.650 53.001,79.118 52.982,77.984 52.443 C 77.471 52.199,76.976 52.000,76.884 52.000 C 76.212 52.000,74.919 49.912,74.859 48.731 C 74.800 47.564,75.045 46.333,75.335 46.333 C 75.460 46.333,75.719 45.785,75.742 45.472 C 75.756 45.287,76.537 44.667,76.758 44.667 C 76.871 44.667,77.009 44.549,77.064 44.406 C 77.119 44.263,77.240 44.192,77.332 44.249 C 77.424 44.306,77.500 44.279,77.500 44.188 C 77.500 43.506,80.805 43.791,81.684 44.549 M175.613 44.927 C 175.812 44.967,176.083 45.206,176.215 45.458 C 176.347 45.710,176.568 46.126,176.706 46.381 C 177.012 46.944,177.087 54.188,176.794 54.740 C 176.029 56.174,175.781 56.277,173.133 56.248 C 170.455 56.220,170.078 56.146,169.937 55.619 C 169.708 54.765,169.825 45.575,170.070 45.240 C 170.381 44.814,174.034 44.608,175.613 44.927 M61.929 45.125 C 63.072 46.397,63.002 45.965,63.228 53.167 C 63.329 56.361,63.366 56.336,58.591 56.300 C 55.191 56.275,54.667 56.122,54.667 55.156 C 54.667 54.994,54.574 54.830,54.460 54.792 C 54.297 54.738,54.296 54.630,54.459 54.273 C 54.572 54.025,54.772 53.309,54.903 52.681 C 55.034 52.053,55.296 51.197,55.487 50.779 C 55.677 50.360,55.833 49.887,55.833 49.728 C 55.833 49.209,56.230 47.500,56.350 47.500 C 56.523 47.500,56.833 46.522,56.833 45.975 C 56.833 45.010,57.260 44.833,59.583 44.833 C 61.356 44.833,61.706 44.877,61.929 45.125 M350.200 47.700 C 350.093 47.807,349.873 47.914,349.711 47.937 C 349.549 47.960,348.854 48.065,348.167 48.171 C 347.479 48.276,346.823 48.368,346.708 48.375 C 346.594 48.383,346.500 48.451,346.500 48.528 C 346.500 48.604,346.594 48.672,346.708 48.679 C 347.425 48.723,348.781 49.153,348.987 49.402 C 349.094 49.529,349.356 49.678,349.570 49.732 C 349.784 49.785,350.083 50.018,350.233 50.248 C 350.384 50.478,350.613 50.667,350.743 50.667 C 350.872 50.667,351.022 50.808,351.077 50.981 C 351.132 51.153,351.400 51.528,351.672 51.812 C 351.944 52.097,352.167 52.482,352.167 52.668 C 352.167 52.853,352.392 53.404,352.667 53.891 C 352.942 54.378,353.167 55.005,353.167 55.285 C 353.167 55.564,353.279 55.886,353.417 56.000 C 353.554 56.114,353.667 56.305,353.667 56.423 C 353.667 56.542,353.748 56.666,353.848 56.699 C 353.947 56.732,354.092 57.322,354.169 58.010 C 354.316 59.324,354.667 60.667,354.864 60.667 C 354.971 60.667,355.063 61.178,355.223 62.669 C 355.258 62.991,355.484 63.673,355.726 64.185 C 355.969 64.697,356.167 65.359,356.167 65.656 C 356.167 66.048,356.304 66.317,356.667 66.635 C 356.942 66.877,357.167 67.167,357.167 67.281 C 357.167 68.412,362.016 69.237,362.921 68.261 C 363.148 68.016,363.333 67.873,363.333 67.941 C 363.333 68.010,363.423 67.977,363.533 67.867 C 363.643 67.757,363.943 67.667,364.200 67.667 C 364.457 67.667,364.667 67.590,364.667 67.496 C 364.667 67.402,364.385 67.331,364.042 67.338 C 363.698 67.346,363.192 67.318,362.917 67.276 C 362.642 67.234,362.319 67.192,362.199 67.183 C 361.633 67.140,359.926 64.996,359.785 64.151 C 359.748 63.930,359.662 63.600,359.593 63.417 C 359.525 63.233,359.399 62.895,359.314 62.666 C 359.229 62.436,359.020 61.461,358.848 60.499 C 358.677 59.537,358.414 58.427,358.266 58.032 C 358.117 57.637,357.970 57.187,357.939 57.032 C 357.845 56.554,357.625 56.105,357.221 55.568 C 357.008 55.284,356.833 54.967,356.833 54.864 C 356.833 54.761,356.608 54.510,356.333 54.307 C 356.058 54.104,355.833 53.837,355.833 53.715 C 355.833 53.593,355.647 53.408,355.420 53.304 C 355.192 53.201,354.967 52.993,354.920 52.843 C 354.813 52.506,353.549 51.437,352.661 50.932 C 352.297 50.725,352.042 50.513,352.095 50.461 C 352.147 50.408,351.953 50.313,351.663 50.249 C 351.065 50.118,350.655 49.377,350.571 48.275 C 350.514 47.521,350.461 47.439,350.200 47.700 M37.230 51.650 C 37.149 51.719,36.746 51.871,36.333 51.988 C 34.783 52.429,34.870 52.314,35.047 53.690 C 35.299 55.637,35.320 55.667,36.499 55.667 C 37.988 55.667,39.234 54.174,38.512 53.255 C 38.437 53.161,38.292 52.820,38.189 52.499 C 37.992 51.887,37.480 51.434,37.230 51.650 M24.750 63.156 L 23.917 63.583 23.924 64.667 C 23.937 66.408,24.275 66.827,25.670 66.831 C 26.549 66.833,26.605 66.808,26.900 66.260 C 27.070 65.944,27.312 65.647,27.438 65.598 C 28.210 65.302,27.240 63.420,26.138 63.076 C 25.924 63.010,25.712 62.904,25.667 62.841 C 25.621 62.779,25.208 62.920,24.750 63.156 M283.167 67.515 C 283.167 67.598,283.329 67.667,283.528 67.667 C 283.726 67.667,283.837 67.614,283.773 67.551 C 283.593 67.371,283.167 67.345,283.167 67.515 " stroke="none" fill="#fcfcfc" fill-rule="evenodd"></path><path id="path1" d="M36.188 20.655 C 35.563 20.730,35.206 20.871,35.004 21.121 C 34.764 21.417,34.461 21.499,33.258 21.597 C 32.106 21.690,31.709 21.793,31.359 22.087 C 30.992 22.395,30.622 22.480,29.181 22.583 C 27.695 22.689,27.391 22.761,27.067 23.084 C 26.739 23.413,26.448 23.478,24.841 23.583 C 23.286 23.684,22.898 23.767,22.403 24.103 C 21.538 24.690,19.458 24.750,18.767 24.208 C 18.143 23.719,16.892 23.692,16.304 24.154 C 16.080 24.330,15.639 24.540,15.324 24.622 C 14.913 24.728,14.734 24.876,14.696 25.144 C 14.666 25.350,14.461 25.601,14.240 25.701 C 13.670 25.961,13.627 26.219,13.593 29.577 C 13.563 32.578,13.562 32.590,13.131 33.021 C 12.788 33.364,12.673 33.686,12.578 34.573 C 12.490 35.402,12.362 35.790,12.087 36.064 C 11.801 36.350,11.688 36.720,11.595 37.676 C 11.507 38.586,11.382 39.016,11.128 39.288 C 10.770 39.672,10.527 40.722,10.510 41.958 C 10.504 42.348,10.430 42.667,10.345 42.667 C 9.940 42.667,9.688 43.243,9.577 44.427 C 9.484 45.422,9.377 45.774,9.080 46.072 C 8.770 46.382,8.679 46.712,8.581 47.887 C 8.399 50.073,8.329 49.946,11.658 53.438 C 12.193 53.999,12.678 54.607,12.735 54.787 C 12.793 54.968,13.019 55.198,13.239 55.298 C 13.458 55.398,13.686 55.630,13.744 55.815 C 13.803 55.999,14.001 56.197,14.185 56.256 C 14.369 56.314,14.588 56.544,14.673 56.767 C 14.758 56.990,15.010 57.242,15.234 57.327 C 15.467 57.416,15.664 57.643,15.696 57.859 C 15.730 58.099,15.899 58.271,16.161 58.333 C 16.415 58.392,16.607 58.582,16.667 58.833 C 16.725 59.082,16.918 59.275,17.167 59.333 C 17.418 59.393,17.608 59.585,17.667 59.839 C 17.728 60.097,17.901 60.270,18.132 60.303 C 18.361 60.336,18.539 60.513,18.604 60.774 C 18.662 61.003,18.888 61.259,19.107 61.342 C 19.327 61.426,19.574 61.673,19.657 61.891 C 19.740 62.109,19.963 62.328,20.152 62.378 C 20.341 62.427,20.566 62.652,20.652 62.878 C 20.738 63.103,20.952 63.326,21.129 63.372 C 21.514 63.473,21.666 64.110,21.669 65.646 C 21.672 66.849,21.735 67.021,22.280 67.308 C 22.480 67.413,22.667 67.668,22.697 67.874 C 22.822 68.752,28.179 68.744,28.304 67.865 C 28.337 67.639,28.531 67.417,28.779 67.322 C 29.010 67.235,29.236 67.022,29.281 66.850 C 29.349 66.588,29.590 66.518,30.770 66.420 C 31.908 66.325,32.269 66.226,32.655 65.901 C 33.022 65.592,33.336 65.497,34.024 65.488 C 35.616 65.466,36.701 65.244,36.996 64.880 C 37.230 64.591,37.548 64.522,39.139 64.418 C 40.686 64.317,41.105 64.231,41.571 63.915 C 41.996 63.626,42.484 63.503,43.573 63.413 C 44.740 63.316,45.130 63.210,45.632 62.855 L 46.250 62.418 57.750 62.364 C 64.075 62.334,69.311 62.250,69.386 62.177 C 69.461 62.104,69.836 62.112,70.219 62.193 C 70.603 62.275,72.337 62.321,74.073 62.296 L 77.229 62.250 77.379 61.667 C 77.461 61.346,77.635 60.965,77.764 60.820 C 77.931 60.634,78.000 60.111,78.000 59.029 L 78.000 57.500 79.333 57.500 L 80.667 57.500 80.667 59.655 C 80.667 61.391,80.717 61.860,80.929 62.071 C 81.331 62.473,87.853 62.461,88.188 62.058 C 88.372 61.836,88.433 60.210,88.500 53.683 C 88.546 49.228,88.631 45.747,88.690 45.947 C 88.764 46.200,88.978 46.345,89.392 46.423 C 89.720 46.485,90.075 46.640,90.181 46.767 C 90.439 47.078,91.571 47.066,91.833 46.750 C 91.947 46.612,92.209 46.500,92.415 46.500 C 92.968 46.500,92.996 46.901,92.998 54.696 L 93.000 61.642 93.439 61.988 C 94.176 62.567,100.333 62.515,100.924 61.924 L 101.333 61.515 101.333 54.008 C 101.333 45.952,101.354 45.771,102.167 46.750 C 102.428 47.064,103.561 47.079,103.816 46.771 C 103.921 46.645,104.299 46.495,104.658 46.437 C 105.079 46.370,105.336 46.231,105.385 46.042 C 105.427 45.881,105.473 49.087,105.488 53.167 C 105.514 60.568,105.594 61.913,106.023 62.184 C 106.466 62.465,112.932 62.366,113.174 62.075 C 113.314 61.906,113.415 61.069,113.466 59.658 L 113.544 57.500 115.000 57.500 L 116.456 57.500 116.534 59.658 C 116.639 62.584,116.288 62.360,120.651 62.277 C 122.630 62.240,124.325 62.211,124.417 62.213 C 124.508 62.215,129.583 62.245,135.694 62.278 C 148.036 62.345,147.326 62.408,147.341 61.238 C 147.350 60.493,147.350 48.507,147.341 47.762 C 147.331 47.028,146.965 46.671,146.196 46.648 C 145.620 46.631,145.637 46.617,146.497 46.408 C 147.377 46.194,147.429 46.200,147.944 46.593 C 148.418 46.955,148.644 47.000,149.971 47.000 C 151.848 47.000,151.667 46.195,151.667 54.521 L 151.667 61.515 152.076 61.924 C 152.612 62.460,158.758 62.576,159.188 62.058 C 159.373 61.836,159.426 60.355,159.466 54.391 L 159.516 47.000 161.071 47.000 C 162.250 47.000,162.676 46.940,162.833 46.750 C 163.646 45.771,163.667 45.952,163.667 54.008 L 163.667 61.515 164.077 61.926 L 164.488 62.336 173.267 62.293 C 182.880 62.246,182.176 62.326,182.433 61.250 L 182.553 60.750 182.670 61.392 C 182.734 61.746,182.891 62.101,183.018 62.181 C 183.318 62.371,189.678 62.374,189.977 62.184 C 190.349 61.949,190.484 60.756,190.507 57.500 C 190.521 55.480,190.578 54.582,190.672 54.897 C 190.751 55.161,190.965 55.536,191.146 55.730 C 191.364 55.963,191.516 56.442,191.595 57.140 C 191.677 57.879,191.829 58.334,192.101 58.657 C 192.314 58.910,192.540 59.444,192.604 59.843 C 192.670 60.253,192.886 60.734,193.100 60.948 C 193.308 61.157,193.578 61.535,193.700 61.789 L 193.921 62.250 197.151 62.295 C 201.021 62.350,201.167 62.303,201.167 61.006 C 201.167 60.389,201.088 60.131,200.850 59.964 C 200.633 59.812,200.496 59.439,200.413 58.776 C 200.333 58.140,200.160 57.653,199.906 57.351 C 199.672 57.073,199.475 56.558,199.408 56.050 C 199.281 55.097,199.216 54.963,198.750 54.699 C 198.454 54.531,198.485 54.510,199.021 54.505 C 199.353 54.502,199.858 54.453,200.143 54.396 C 200.688 54.287,200.709 54.309,200.907 55.214 C 201.102 56.099,201.802 56.332,204.272 56.333 L 206.461 56.333 206.527 59.063 C 206.574 61.023,206.656 61.870,206.817 62.063 C 207.069 62.367,213.521 62.473,213.982 62.181 C 214.313 61.972,214.479 60.729,214.490 58.375 L 214.500 56.333 216.625 56.331 C 219.742 56.327,219.500 57.070,219.500 47.500 C 219.500 40.257,219.428 39.102,218.961 38.806 C 218.845 38.732,217.411 38.671,215.775 38.669 L 212.800 38.667 212.233 39.233 L 211.667 39.800 211.667 43.636 C 211.667 48.251,211.734 48.000,210.488 48.000 C 209.149 48.000,209.167 48.061,209.167 43.498 L 209.167 39.641 208.679 39.154 L 208.192 38.667 205.221 38.669 C 202.019 38.672,201.944 38.687,201.675 39.396 L 201.495 39.868 200.830 39.267 L 200.166 38.667 191.825 38.667 L 183.485 38.667 183.076 39.076 C 182.839 39.313,182.666 39.681,182.664 39.951 C 182.662 40.313,182.626 40.361,182.500 40.167 C 182.411 40.029,182.337 39.753,182.336 39.554 C 182.329 38.635,182.547 38.654,173.193 38.735 C 162.764 38.825,164.853 38.825,156.000 38.733 C 147.686 38.646,147.940 38.627,147.673 39.374 L 147.480 39.917 147.237 39.463 C 146.813 38.671,146.770 38.667,138.803 38.669 C 130.993 38.672,131.013 38.670,130.686 39.292 C 130.577 39.498,130.388 39.667,130.265 39.667 C 129.855 39.667,129.688 40.081,129.569 41.397 C 129.477 42.418,129.371 42.780,129.084 43.068 C 128.804 43.347,128.688 43.724,128.597 44.643 C 128.514 45.488,128.361 46.023,128.090 46.423 C 127.803 46.846,127.671 47.344,127.583 48.341 C 127.487 49.421,127.388 49.763,127.085 50.067 C 126.339 50.813,126.319 54.101,127.059 54.306 C 127.331 54.381,127.218 54.447,126.583 54.585 L 125.750 54.765 125.592 55.758 C 125.488 56.407,125.319 56.843,125.102 57.019 C 124.895 57.187,124.728 57.593,124.657 58.102 C 124.595 58.550,124.531 54.754,124.515 49.667 C 124.486 40.499,124.416 39.094,123.977 38.816 C 123.677 38.626,106.318 38.629,106.018 38.819 C 105.891 38.899,105.734 39.254,105.670 39.608 L 105.553 40.250 105.433 39.750 C 105.176 38.676,105.795 38.754,97.120 38.707 C 88.464 38.659,88.667 38.638,88.667 39.605 C 88.667 39.839,88.594 39.975,88.500 39.917 C 88.408 39.860,88.333 39.646,88.333 39.440 C 88.333 38.658,88.437 38.667,79.209 38.667 L 70.485 38.667 70.076 39.076 L 69.667 39.485 69.640 49.117 C 69.616 58.242,69.607 58.486,69.485 53.750 C 69.332 47.866,69.072 44.532,68.734 44.154 C 68.564 43.962,68.499 43.394,68.496 42.070 C 68.492 40.103,68.319 39.033,67.970 38.812 C 67.849 38.735,65.678 38.671,63.147 38.669 L 58.543 38.667 58.433 37.694 C 58.313 36.629,57.677 35.795,56.827 35.586 C 56.595 35.529,56.332 35.317,56.244 35.116 C 56.097 34.781,55.935 34.743,54.338 34.667 C 52.689 34.588,52.581 34.561,52.388 34.174 C 52.276 33.948,52.030 33.707,51.840 33.636 C 51.650 33.566,51.423 33.319,51.335 33.088 C 51.247 32.856,51.059 32.667,50.917 32.667 C 50.775 32.667,50.572 32.460,50.464 32.208 C 50.275 31.763,48.862 30.191,45.838 27.061 C 45.030 26.224,44.319 25.384,44.259 25.195 C 44.199 25.005,43.999 24.803,43.815 24.744 C 43.631 24.686,43.412 24.456,43.327 24.233 C 43.242 24.010,42.994 23.759,42.776 23.676 C 42.557 23.593,42.338 23.371,42.289 23.181 C 42.239 22.992,42.010 22.765,41.779 22.678 C 41.530 22.583,41.337 22.361,41.304 22.134 C 41.269 21.884,41.119 21.731,40.875 21.697 C 40.638 21.663,40.462 21.491,40.396 21.226 C 40.219 20.522,38.842 20.335,36.188 20.655 M36.500 24.992 C 36.500 25.473,36.387 25.764,36.083 26.068 C 35.828 26.324,35.667 26.674,35.667 26.975 C 35.667 27.477,35.430 27.667,34.803 27.667 C 34.618 27.667,34.248 27.901,33.980 28.188 L 33.493 28.709 31.301 28.588 C 29.454 28.486,29.033 28.411,28.635 28.117 C 28.128 27.742,26.952 27.538,25.167 27.513 L 24.083 27.499 24.625 27.168 C 24.923 26.987,25.167 26.762,25.167 26.669 C 25.167 26.574,25.624 26.494,26.208 26.486 C 27.956 26.462,29.132 26.255,29.638 25.881 C 30.001 25.613,30.479 25.501,31.654 25.409 C 32.911 25.310,33.279 25.217,33.652 24.904 C 33.973 24.633,34.376 24.501,35.013 24.457 C 35.510 24.423,36.048 24.381,36.208 24.364 C 36.442 24.339,36.500 24.464,36.500 24.992 M42.660 28.438 C 43.194 28.999,43.680 29.614,43.741 29.804 C 43.801 29.994,44.001 30.197,44.185 30.256 C 44.370 30.314,44.602 30.542,44.702 30.761 C 44.802 30.981,45.027 31.206,45.202 31.261 C 45.376 31.316,45.591 31.550,45.678 31.780 C 45.766 32.011,45.992 32.239,46.181 32.289 C 46.371 32.338,46.593 32.557,46.676 32.776 C 46.759 32.994,47.010 33.242,47.234 33.327 C 47.467 33.416,47.664 33.643,47.696 33.859 C 47.730 34.094,47.907 34.280,48.167 34.352 C 48.535 34.453,48.516 34.469,47.998 34.483 C 47.542 34.496,47.376 34.417,47.248 34.125 C 47.121 33.837,46.880 33.719,46.202 33.612 C 45.639 33.523,45.181 33.333,44.934 33.085 C 44.645 32.797,44.274 32.669,43.473 32.583 C 42.595 32.489,42.370 32.403,42.241 32.109 C 42.123 31.840,41.866 31.716,41.208 31.613 C 40.380 31.482,40.333 31.448,40.333 30.980 C 40.333 30.675,40.174 30.326,39.918 30.070 C 39.690 29.842,39.456 29.465,39.397 29.232 C 39.339 28.999,39.113 28.741,38.896 28.659 C 38.407 28.473,38.407 28.442,38.892 27.957 C 39.201 27.648,39.310 27.303,39.406 26.329 L 39.527 25.094 40.608 26.255 C 41.202 26.894,42.125 27.876,42.660 28.438 M252.250 25.618 C 251.598 25.776,251.584 25.903,251.554 31.800 C 251.515 39.447,251.493 39.379,254.050 39.387 C 255.672 39.392,256.110 39.273,256.265 38.786 C 256.328 38.587,256.582 38.234,256.829 38.003 C 257.121 37.730,257.319 37.328,257.395 36.850 C 257.459 36.447,257.697 35.898,257.923 35.629 C 258.148 35.361,258.333 34.969,258.333 34.758 C 258.333 33.956,258.541 33.361,258.849 33.281 C 259.022 33.236,259.233 33.014,259.319 32.789 C 259.404 32.563,259.636 32.337,259.833 32.285 C 260.030 32.234,260.230 32.044,260.277 31.864 C 260.368 31.517,260.945 31.333,261.945 31.333 C 262.326 31.333,262.649 31.199,262.919 30.930 C 263.357 30.491,271.245 29.921,271.486 30.310 C 271.785 30.795,271.495 63.646,271.190 63.742 C 271.022 63.796,270.799 64.026,270.696 64.253 C 270.589 64.487,270.366 64.667,270.183 64.667 C 270.005 64.667,269.644 64.847,269.382 65.068 C 268.985 65.402,268.643 65.490,267.341 65.592 C 265.174 65.761,264.579 66.254,264.623 67.844 C 264.671 69.560,263.639 69.413,275.881 69.440 C 287.011 69.463,287.655 69.427,288.094 68.757 C 288.522 68.104,288.355 66.969,287.792 66.700 C 287.540 66.580,287.333 66.416,287.333 66.336 C 287.333 65.890,286.763 65.702,285.053 65.585 C 283.577 65.485,283.216 65.407,283.038 65.153 C 282.919 64.982,282.527 64.764,282.167 64.667 C 281.420 64.466,281.440 64.525,281.167 61.691 C 280.838 58.289,280.950 29.501,281.292 29.495 C 286.944 29.399,290.741 29.532,290.952 29.833 C 291.077 30.011,291.484 30.239,291.858 30.340 C 292.305 30.460,292.567 30.637,292.625 30.858 C 292.673 31.042,292.875 31.254,293.075 31.330 C 293.303 31.417,293.513 31.720,293.640 32.145 C 293.752 32.517,293.995 32.928,294.181 33.058 C 294.366 33.188,294.576 33.509,294.645 33.772 C 294.727 34.080,294.899 34.269,295.128 34.302 C 295.409 34.343,295.506 34.510,295.595 35.102 C 295.702 35.816,296.016 36.333,296.342 36.333 C 296.425 36.333,296.542 36.540,296.602 36.792 C 296.661 37.044,296.882 37.438,297.092 37.667 C 297.302 37.896,297.540 38.346,297.622 38.667 C 297.723 39.066,297.878 39.266,298.113 39.300 C 298.385 39.340,298.486 39.529,298.603 40.217 C 298.714 40.871,298.841 41.123,299.120 41.246 C 299.390 41.364,299.520 41.605,299.599 42.129 C 299.702 42.814,300.019 43.333,300.335 43.333 C 300.415 43.333,300.531 43.675,300.593 44.092 C 300.700 44.800,301.014 45.333,301.325 45.333 C 301.400 45.333,301.544 45.667,301.647 46.074 C 301.749 46.481,301.977 46.915,302.153 47.038 C 302.352 47.177,302.534 47.603,302.636 48.167 C 302.727 48.665,302.885 49.100,302.987 49.134 C 303.357 49.258,303.667 49.699,303.667 50.103 C 303.667 50.332,303.870 50.715,304.125 50.966 L 304.583 51.417 304.634 57.933 L 304.684 64.449 304.095 65.038 C 303.616 65.517,303.335 65.649,302.595 65.741 C 302.094 65.804,301.509 65.993,301.295 66.161 C 301.081 66.329,300.480 66.520,299.958 66.585 C 298.866 66.722,298.752 66.824,298.602 67.802 C 298.457 68.756,298.744 69.767,299.257 70.103 C 299.915 70.534,305.440 70.224,305.847 69.734 C 306.130 69.392,311.870 69.392,312.153 69.734 C 312.391 70.020,313.261 70.137,316.121 70.270 C 318.657 70.387,319.040 70.327,319.295 69.768 C 319.396 69.545,319.634 69.313,319.823 69.253 C 321.219 68.810,319.949 66.743,318.166 66.557 C 317.468 66.484,316.904 66.312,316.527 66.056 C 316.212 65.842,315.708 65.667,315.407 65.667 C 314.619 65.667,314.333 65.515,314.333 65.095 C 314.333 64.891,314.146 64.549,313.917 64.333 L 313.500 63.942 313.500 58.123 C 313.500 52.457,313.509 52.296,313.842 52.027 C 314.030 51.875,314.257 51.423,314.347 51.023 C 314.437 50.622,314.662 50.172,314.847 50.023 C 315.032 49.873,315.258 49.417,315.350 49.010 C 315.441 48.603,315.662 48.168,315.841 48.042 C 316.020 47.917,316.251 47.481,316.353 47.074 C 316.456 46.667,316.600 46.333,316.675 46.333 C 316.985 46.333,317.300 45.802,317.405 45.102 C 317.494 44.509,317.591 44.343,317.874 44.302 C 318.124 44.266,318.275 44.075,318.378 43.667 C 318.460 43.346,318.708 42.892,318.930 42.658 C 319.152 42.423,319.333 42.067,319.333 41.865 C 319.333 41.663,319.524 41.332,319.757 41.130 C 319.989 40.927,320.257 40.456,320.351 40.082 C 320.460 39.648,320.653 39.345,320.886 39.243 C 321.158 39.124,321.287 38.865,321.397 38.217 C 321.514 37.529,321.615 37.340,321.887 37.300 C 322.122 37.266,322.277 37.066,322.378 36.667 C 322.460 36.346,322.698 35.896,322.908 35.667 C 323.118 35.438,323.338 35.049,323.396 34.803 C 323.453 34.557,323.646 34.309,323.823 34.253 C 324.001 34.197,324.229 33.901,324.329 33.596 C 324.430 33.290,324.666 32.902,324.853 32.732 C 325.041 32.562,325.297 32.178,325.422 31.878 C 325.547 31.579,325.768 31.333,325.912 31.333 C 326.057 31.333,326.244 31.153,326.327 30.932 C 326.430 30.663,326.661 30.494,327.032 30.420 C 328.010 30.222,328.148 30.155,328.253 29.825 C 328.409 29.331,331.590 29.329,331.747 29.823 C 331.803 30.001,332.099 30.229,332.404 30.329 C 333.296 30.624,333.535 31.021,333.681 32.457 C 333.947 35.073,334.051 35.668,334.273 35.853 C 334.617 36.138,334.610 61.868,334.266 62.153 C 334.138 62.260,333.995 62.663,333.948 63.049 C 333.667 65.396,333.599 65.505,332.318 65.656 C 331.585 65.743,331.202 65.876,331.011 66.112 C 330.822 66.345,330.441 66.481,329.750 66.562 C 327.912 66.778,327.491 67.791,328.600 69.334 C 329.339 70.363,329.511 70.408,332.146 70.267 C 333.853 70.176,334.335 70.093,334.702 69.827 C 335.290 69.401,341.809 69.319,342.153 69.734 C 342.394 70.024,343.278 70.141,346.197 70.270 L 348.478 70.371 348.903 69.946 C 349.136 69.712,349.535 69.422,349.789 69.301 C 350.987 68.729,350.310 66.832,348.818 66.581 C 348.414 66.513,347.913 66.324,347.705 66.161 C 347.497 65.997,346.935 65.816,346.455 65.758 C 344.433 65.514,344.355 65.490,344.302 65.112 C 344.269 64.887,344.111 64.730,343.884 64.698 C 343.583 64.655,343.500 64.506,343.420 63.865 C 343.366 63.435,343.250 62.677,343.161 62.181 C 342.917 60.811,342.953 51.977,343.207 51.164 L 343.414 50.500 345.142 50.500 C 346.741 50.500,346.905 50.531,347.364 50.917 C 347.636 51.146,348.005 51.333,348.183 51.333 C 348.363 51.333,348.588 51.510,348.689 51.732 C 348.788 51.951,349.044 52.209,349.256 52.306 C 349.468 52.402,349.666 52.654,349.696 52.866 C 349.730 53.109,349.881 53.269,350.106 53.301 C 350.463 53.352,350.667 53.880,350.667 54.758 C 350.667 54.969,350.858 55.369,351.092 55.647 C 351.431 56.050,351.539 56.400,351.620 57.361 C 351.699 58.304,351.803 58.651,352.094 58.943 C 352.408 59.256,352.487 59.577,352.589 60.938 C 352.692 62.308,352.770 62.618,353.090 62.939 C 353.389 63.238,353.496 63.589,353.589 64.584 C 353.697 65.740,353.946 66.333,354.322 66.333 C 354.394 66.333,354.520 66.725,354.602 67.204 C 354.718 67.887,354.840 68.120,355.167 68.282 C 355.396 68.395,355.623 68.655,355.672 68.859 C 355.723 69.073,355.938 69.276,356.183 69.342 C 356.416 69.404,356.797 69.646,357.030 69.878 C 357.889 70.737,363.756 70.789,364.636 69.946 C 364.901 69.692,365.335 69.426,365.601 69.355 C 365.866 69.285,366.174 69.044,366.286 68.822 C 366.397 68.599,366.655 68.377,366.859 68.328 C 367.073 68.277,367.276 68.062,367.342 67.817 C 367.404 67.584,367.646 67.203,367.878 66.970 C 368.381 66.467,368.612 64.923,368.384 63.583 L 368.242 62.750 366.996 62.750 C 365.822 62.750,365.747 62.772,365.696 63.134 C 365.666 63.346,365.461 63.601,365.240 63.701 C 365.020 63.802,364.790 64.040,364.730 64.230 C 364.310 65.554,363.189 65.764,362.401 64.667 C 362.071 64.208,361.748 63.833,361.682 63.833 C 361.616 63.833,361.476 62.918,361.371 61.800 C 361.227 60.274,361.099 59.658,360.860 59.334 C 360.676 59.085,360.489 58.459,360.420 57.860 C 360.335 57.127,360.180 56.677,359.899 56.342 C 359.678 56.081,359.451 55.615,359.394 55.308 C 359.336 55.001,359.114 54.560,358.899 54.329 C 358.684 54.097,358.428 53.676,358.329 53.393 C 358.231 53.111,357.972 52.798,357.755 52.699 C 357.537 52.600,357.334 52.349,357.304 52.141 C 357.270 51.901,357.101 51.729,356.839 51.667 C 356.585 51.608,356.393 51.418,356.333 51.167 C 356.278 50.930,356.082 50.725,355.863 50.673 C 355.657 50.624,355.397 50.401,355.286 50.177 C 355.172 49.949,354.861 49.713,354.574 49.639 C 354.294 49.567,353.887 49.318,353.670 49.087 C 353.453 48.856,353.082 48.658,352.846 48.648 C 352.610 48.638,352.936 48.535,353.572 48.421 C 354.360 48.278,354.815 48.103,355.005 47.868 C 355.158 47.679,355.576 47.475,355.933 47.414 C 356.991 47.235,357.107 47.179,357.299 46.760 C 357.399 46.539,357.654 46.334,357.866 46.304 C 358.111 46.270,358.269 46.119,358.302 45.888 C 358.333 45.666,358.534 45.462,358.821 45.363 C 359.110 45.262,359.329 45.039,359.395 44.778 C 359.461 44.515,359.638 44.336,359.865 44.303 C 360.125 44.265,360.273 44.081,360.378 43.667 C 360.460 43.346,360.707 42.892,360.929 42.659 C 361.233 42.338,361.358 41.970,361.441 41.159 C 361.507 40.510,361.673 39.926,361.859 39.686 C 362.315 39.098,362.311 35.896,361.854 35.314 C 361.671 35.081,361.492 34.482,361.420 33.867 C 361.333 33.115,361.182 32.679,360.885 32.326 C 360.658 32.056,360.418 31.628,360.352 31.376 C 360.286 31.123,360.067 30.843,359.866 30.752 C 359.138 30.425,359.532 30.334,361.199 30.443 C 362.550 30.532,363.009 30.629,363.436 30.919 C 363.758 31.137,364.358 31.324,364.930 31.383 C 366.127 31.506,367.352 32.570,367.647 33.741 C 367.744 34.125,367.972 34.574,368.154 34.739 C 368.341 34.908,368.535 35.369,368.600 35.800 C 368.667 36.252,368.868 36.716,369.092 36.941 C 369.300 37.149,369.518 37.536,369.576 37.801 C 369.956 39.529,373.304 40.131,374.815 38.742 L 375.417 38.190 375.338 35.887 C 375.245 33.155,375.244 31.109,375.333 28.500 C 375.403 26.448,375.319 25.945,374.869 25.724 C 374.574 25.579,252.845 25.474,252.250 25.618 M19.048 26.623 C 19.772 27.173,19.893 28.009,19.332 28.577 C 19.147 28.764,18.856 29.102,18.684 29.328 C 18.141 30.042,16.560 29.944,16.124 29.170 C 14.955 27.093,17.149 25.182,19.048 26.623 M280.084 27.396 C 280.379 27.612,280.367 27.633,279.883 27.739 C 278.744 27.989,278.824 26.633,278.831 45.488 C 278.837 62.984,278.859 63.600,279.506 64.509 C 279.686 64.761,279.833 65.071,279.833 65.197 C 279.833 65.582,280.334 66.167,280.664 66.167 C 281.038 66.167,281.542 66.630,281.407 66.849 C 281.354 66.935,281.240 66.962,281.155 66.910 C 281.070 66.857,281.000 66.896,281.000 66.996 C 281.000 67.288,271.584 67.154,271.300 66.858 C 271.121 66.672,271.139 66.599,271.402 66.441 C 272.432 65.825,273.016 65.025,273.207 63.970 C 273.312 63.391,273.447 62.879,273.507 62.833 C 273.655 62.720,273.643 64.081,273.663 46.032 L 273.681 29.813 273.262 28.926 C 273.031 28.438,272.721 27.993,272.574 27.936 C 272.158 27.776,267.663 27.823,266.917 27.995 C 266.550 28.079,265.894 28.166,265.458 28.189 C 265.023 28.211,264.667 28.285,264.667 28.353 C 264.667 28.420,264.254 28.556,263.750 28.655 C 263.246 28.753,262.409 28.916,261.891 29.018 C 261.372 29.119,260.805 29.335,260.630 29.498 C 260.456 29.661,260.036 29.839,259.698 29.895 C 259.125 29.989,258.729 30.296,257.500 31.599 C 257.159 31.960,256.589 33.167,256.759 33.167 C 256.812 33.167,256.711 33.373,256.535 33.625 C 256.358 33.877,256.079 34.496,255.914 35.000 C 255.351 36.717,254.802 37.291,253.929 37.072 C 253.399 36.938,253.233 36.392,253.489 35.617 C 254.042 33.941,253.991 29.429,253.408 28.486 C 253.209 28.164,253.183 27.598,253.358 27.387 C 253.635 27.053,279.626 27.062,280.084 27.396 M303.884 27.271 C 304.767 27.392,304.734 27.633,303.814 27.778 C 303.014 27.904,302.000 28.519,302.000 28.878 C 302.000 28.953,301.807 29.218,301.570 29.466 C 300.853 30.218,300.685 31.651,301.166 32.914 C 301.236 33.099,301.296 33.317,301.299 33.398 C 301.302 33.479,301.388 33.597,301.490 33.660 C 301.591 33.723,301.709 33.956,301.752 34.179 C 301.879 34.844,302.183 35.470,302.423 35.563 C 302.547 35.610,302.730 35.950,302.829 36.317 C 302.928 36.684,303.185 37.195,303.399 37.451 C 303.614 37.707,303.847 38.179,303.917 38.500 C 303.986 38.821,304.218 39.292,304.432 39.547 C 304.645 39.801,304.868 40.265,304.926 40.577 C 304.985 40.888,305.131 41.181,305.250 41.227 C 305.526 41.333,306.833 43.928,306.833 44.369 C 306.833 45.176,309.412 46.946,309.706 46.341 C 309.730 46.291,309.975 46.126,310.250 45.974 C 310.815 45.663,312.167 43.458,312.167 42.848 C 312.167 42.759,312.305 42.588,312.474 42.468 C 312.854 42.198,313.167 41.626,313.167 41.201 C 313.167 41.024,313.392 40.596,313.667 40.250 C 313.942 39.904,314.167 39.454,314.167 39.250 C 314.167 39.046,314.392 38.596,314.667 38.250 C 314.942 37.904,315.167 37.529,315.167 37.417 C 315.167 37.305,315.338 36.959,315.548 36.648 C 315.757 36.338,316.033 35.821,316.160 35.500 C 316.287 35.179,316.527 34.719,316.693 34.478 C 316.859 34.236,317.080 33.636,317.184 33.144 C 317.287 32.652,317.441 32.164,317.525 32.060 C 317.609 31.955,317.631 31.617,317.574 31.310 C 317.516 31.002,317.453 30.658,317.434 30.546 C 317.414 30.435,317.346 30.291,317.283 30.227 C 317.219 30.163,317.167 29.913,317.167 29.671 C 317.167 29.050,315.941 28.224,314.434 27.829 C 313.783 27.658,313.287 27.508,313.333 27.496 C 313.379 27.484,313.567 27.428,313.750 27.372 C 314.551 27.124,327.901 27.150,328.585 27.400 C 329.081 27.581,329.152 27.646,328.865 27.655 C 328.005 27.681,327.048 28.052,326.440 28.593 C 326.086 28.909,325.691 29.167,325.561 29.167 C 325.432 29.167,325.245 29.346,325.145 29.565 C 325.045 29.784,324.784 30.045,324.565 30.145 C 324.346 30.245,324.167 30.391,324.167 30.470 C 324.167 30.549,323.885 30.915,323.542 31.283 C 322.757 32.124,321.833 33.392,321.833 33.629 C 321.833 33.727,321.657 34.020,321.441 34.279 C 321.225 34.538,320.958 35.026,320.848 35.364 C 320.738 35.702,320.593 36.002,320.526 36.031 C 320.459 36.060,320.198 36.440,319.945 36.875 C 319.693 37.310,319.423 37.667,319.346 37.667 C 319.269 37.667,319.038 38.079,318.833 38.583 C 318.629 39.087,318.413 39.500,318.355 39.500 C 318.296 39.500,318.071 39.856,317.855 40.292 C 317.639 40.727,317.214 41.533,316.911 42.083 C 316.608 42.633,316.253 43.308,316.122 43.583 C 315.991 43.858,315.687 44.271,315.445 44.500 C 315.203 44.729,314.959 45.158,314.902 45.453 C 314.845 45.748,314.626 46.162,314.416 46.372 C 314.206 46.582,313.951 47.062,313.850 47.438 C 313.749 47.815,313.527 48.302,313.358 48.520 C 313.189 48.738,313.002 49.118,312.942 49.363 C 312.882 49.609,312.715 49.928,312.571 50.072 C 312.427 50.216,312.364 50.333,312.431 50.333 C 312.497 50.333,312.433 50.465,312.288 50.625 C 311.610 51.376,311.107 60.527,311.589 63.333 C 311.628 63.563,311.725 64.200,311.803 64.750 C 311.950 65.783,312.943 67.173,313.603 67.270 C 314.689 67.429,313.749 67.856,312.583 67.732 C 311.686 67.637,309.157 67.614,305.686 67.668 C 304.248 67.691,303.861 67.478,304.817 67.191 C 305.390 67.020,305.541 66.864,305.940 66.038 C 306.194 65.513,306.450 65.046,306.509 65.000 C 306.722 64.835,306.963 64.241,307.016 63.750 C 307.187 62.158,307.067 52.334,306.875 52.142 C 306.760 52.027,306.667 51.830,306.667 51.705 C 306.667 51.579,306.554 51.364,306.417 51.226 C 306.279 51.089,306.167 50.805,306.167 50.595 C 306.167 50.385,305.968 49.921,305.726 49.565 C 305.483 49.208,305.222 48.692,305.145 48.417 C 305.069 48.142,304.817 47.714,304.586 47.466 C 304.355 47.218,304.167 46.834,304.167 46.614 C 304.167 46.393,303.942 45.929,303.667 45.583 C 303.392 45.237,303.167 44.829,303.167 44.676 C 303.167 44.524,302.954 44.063,302.694 43.654 C 302.434 43.244,302.167 42.690,302.100 42.424 C 302.033 42.157,301.796 41.722,301.573 41.457 C 301.349 41.191,301.167 40.836,301.167 40.667 C 301.167 40.497,300.989 40.147,300.773 39.888 C 300.556 39.629,300.209 39.079,300.000 38.667 C 299.792 38.254,299.562 37.878,299.488 37.830 C 299.350 37.740,299.043 37.024,299.036 36.776 C 299.034 36.699,298.856 36.436,298.641 36.193 C 298.426 35.949,298.071 35.394,297.852 34.958 C 297.633 34.523,297.396 34.167,297.324 34.167 C 297.165 34.167,296.167 32.565,296.167 32.309 C 296.167 32.137,295.874 31.775,294.396 30.119 C 294.087 29.773,293.833 29.418,293.833 29.331 C 293.833 29.244,293.654 29.128,293.435 29.073 C 293.216 29.018,292.828 28.755,292.572 28.489 C 292.152 28.049,291.514 27.815,290.609 27.767 C 290.134 27.742,290.075 27.372,290.532 27.289 C 291.188 27.171,303.037 27.154,303.884 27.271 M372.909 27.433 C 373.126 27.649,373.138 27.750,372.973 27.950 C 372.820 28.134,372.776 29.254,372.800 32.307 C 372.840 37.326,372.839 37.329,372.044 37.284 C 371.494 37.253,371.423 37.188,371.180 36.500 C 371.034 36.087,370.747 35.487,370.541 35.167 C 370.321 34.822,370.168 34.321,370.167 33.942 C 370.167 33.457,370.053 33.193,369.701 32.859 C 369.445 32.616,369.104 32.135,368.943 31.792 C 368.783 31.448,368.598 31.167,368.534 31.166 C 368.469 31.166,368.079 30.866,367.667 30.500 C 367.254 30.134,366.819 29.834,366.699 29.834 C 366.579 29.833,366.148 29.647,365.740 29.420 C 365.333 29.193,365.000 29.033,365.000 29.065 C 365.000 29.097,364.644 29.053,364.208 28.967 C 363.773 28.881,363.267 28.785,363.083 28.752 C 362.321 28.617,361.955 28.503,361.759 28.341 C 361.646 28.247,361.517 28.205,361.474 28.248 C 361.431 28.291,360.657 28.215,359.754 28.080 C 358.851 27.944,357.975 27.833,357.806 27.833 C 356.615 27.833,356.400 30.938,357.571 31.232 C 357.807 31.291,358.000 31.445,358.000 31.575 C 358.000 31.704,358.115 31.925,358.256 32.066 C 358.397 32.207,358.788 32.868,359.124 33.536 L 359.736 34.750 359.785 37.417 C 359.828 39.743,359.794 40.168,359.521 40.750 C 359.349 41.117,359.048 41.773,358.853 42.208 C 358.658 42.644,358.424 43.000,358.332 43.000 C 358.241 43.000,358.167 43.118,358.167 43.262 C 358.167 43.556,357.779 44.000,357.521 44.000 C 357.428 44.000,357.254 44.132,357.134 44.293 C 357.015 44.455,356.599 44.736,356.210 44.918 C 355.822 45.101,355.503 45.344,355.502 45.458 C 355.501 45.573,355.444 45.655,355.375 45.640 C 355.306 45.626,355.129 45.667,354.982 45.732 C 354.767 45.827,354.248 45.806,353.689 45.680 C 353.656 45.673,353.749 45.482,353.897 45.256 C 354.046 45.030,354.167 44.718,354.167 44.563 C 354.167 44.408,354.355 44.034,354.586 43.732 C 355.044 43.131,355.121 42.827,355.251 41.083 C 355.300 40.442,355.375 39.692,355.420 39.417 C 355.583 38.401,355.605 37.239,355.468 36.856 C 355.390 36.639,355.286 35.814,355.237 35.022 C 355.146 33.563,354.912 32.500,354.680 32.500 C 354.520 32.500,354.167 31.737,354.167 31.392 C 354.167 30.891,352.166 29.014,351.515 28.904 C 351.186 28.848,350.720 28.664,350.480 28.496 C 349.338 27.693,344.064 27.557,343.217 28.309 C 343.046 28.460,342.649 28.729,342.333 28.906 C 340.715 29.817,340.684 29.986,340.679 37.917 C 340.675 45.522,340.742 46.154,341.619 46.774 C 342.308 47.260,343.523 48.532,343.409 48.647 C 343.299 48.756,343.197 48.779,342.667 48.813 C 342.226 48.840,341.045 49.999,340.934 50.512 C 340.749 51.365,340.654 53.464,340.655 56.630 C 340.658 61.860,340.840 63.569,341.497 64.498 C 341.659 64.728,341.845 65.160,341.909 65.457 C 341.994 65.851,342.179 66.069,342.595 66.267 C 342.908 66.415,343.126 66.598,343.079 66.673 C 343.033 66.748,343.258 66.905,343.581 67.022 C 344.875 67.490,344.025 67.903,342.124 67.731 C 341.003 67.629,339.413 67.614,335.276 67.669 C 334.373 67.681,333.588 67.643,333.531 67.586 C 333.376 67.432,333.850 67.184,334.110 67.283 C 334.233 67.330,334.333 67.286,334.333 67.184 C 334.333 67.083,334.446 67.000,334.583 67.000 C 334.721 67.000,334.833 66.868,334.833 66.707 C 334.833 66.545,335.094 66.114,335.414 65.748 C 335.733 65.383,336.030 64.858,336.074 64.583 C 336.519 61.816,336.575 60.016,336.573 48.583 C 336.572 38.352,336.503 34.930,336.292 34.556 C 336.249 34.479,336.200 33.929,336.184 33.333 C 336.152 32.183,334.860 29.167,334.399 29.167 C 334.288 29.167,334.021 28.958,333.806 28.704 C 333.268 28.065,332.343 27.726,331.014 27.680 C 330.792 27.673,330.651 27.627,330.699 27.579 C 331.185 27.093,372.427 26.951,372.909 27.433 M36.868 29.593 C 36.961 29.797,37.207 30.041,37.415 30.136 C 38.231 30.507,38.344 32.414,37.571 32.752 C 37.303 32.869,36.940 33.074,36.764 33.208 C 36.493 33.415,36.381 33.418,36.014 33.227 C 35.777 33.103,35.466 33.002,35.323 33.001 C 35.028 33.000,34.283 32.071,34.213 31.616 C 34.043 30.526,36.456 28.688,36.868 29.593 M314.364 29.917 C 314.636 30.146,315.003 30.333,315.179 30.333 C 315.668 30.333,315.664 32.592,315.175 32.747 C 314.836 32.855,314.763 33.015,314.592 34.032 C 314.524 34.434,314.377 34.683,314.169 34.749 C 313.835 34.855,313.763 35.016,313.590 36.042 C 313.532 36.385,313.419 36.667,313.338 36.667 C 313.014 36.667,312.701 37.189,312.593 37.908 C 312.531 38.325,312.415 38.667,312.335 38.667 C 312.019 38.667,311.702 39.186,311.599 39.871 C 311.520 40.395,311.390 40.636,311.120 40.754 C 310.843 40.876,310.714 41.128,310.607 41.760 C 310.503 42.372,310.367 42.646,310.114 42.760 C 309.871 42.869,309.708 43.173,309.584 43.750 C 309.437 44.433,309.385 44.513,309.298 44.196 C 309.239 43.983,309.045 43.770,308.867 43.724 C 308.625 43.661,308.505 43.418,308.396 42.778 C 308.286 42.129,308.159 41.877,307.880 41.754 C 307.610 41.636,307.480 41.395,307.401 40.871 C 307.298 40.186,306.981 39.667,306.665 39.667 C 306.585 39.667,306.469 39.325,306.407 38.908 C 306.299 38.189,305.986 37.667,305.662 37.667 C 305.581 37.667,305.468 37.385,305.410 37.042 C 305.237 36.020,305.165 35.855,304.843 35.753 C 304.652 35.693,304.467 35.379,304.352 34.921 C 304.250 34.516,304.006 34.073,303.811 33.936 C 303.163 33.482,303.133 30.658,303.769 30.023 L 304.250 29.543 309.059 29.521 L 313.869 29.500 314.364 29.917 M22.833 30.344 C 23.337 30.414,24.178 30.478,24.701 30.486 C 25.469 30.497,25.728 30.576,26.048 30.897 C 26.394 31.243,26.667 31.309,28.181 31.418 C 29.464 31.509,30.017 31.620,30.300 31.843 C 30.511 32.009,31.085 32.195,31.576 32.256 C 32.636 32.389,33.050 33.333,32.215 33.713 C 32.001 33.811,31.782 34.061,31.730 34.270 C 31.678 34.478,31.458 34.765,31.241 34.907 C 31.024 35.049,30.755 35.473,30.642 35.849 C 30.513 36.281,30.304 36.583,30.073 36.670 C 29.873 36.747,29.662 36.997,29.604 37.226 C 29.538 37.491,29.362 37.663,29.125 37.697 C 28.881 37.731,28.731 37.884,28.696 38.134 C 28.666 38.346,28.463 38.600,28.245 38.699 C 28.028 38.798,27.775 39.094,27.684 39.356 C 27.592 39.619,27.445 39.833,27.358 39.833 C 27.270 39.833,26.929 40.208,26.599 40.667 C 26.034 41.454,25.959 41.500,25.253 41.500 C 24.451 41.500,24.513 41.578,24.239 40.219 C 24.199 40.019,24.026 39.811,23.856 39.757 C 23.635 39.687,23.503 39.409,23.398 38.788 C 23.288 38.142,23.158 37.876,22.893 37.760 C 22.611 37.636,22.513 37.405,22.429 36.659 C 22.350 35.964,22.215 35.614,21.918 35.334 C 21.661 35.093,21.472 34.678,21.400 34.196 C 21.332 33.740,21.131 33.283,20.899 33.050 C 19.765 31.916,20.349 29.699,21.667 30.134 C 21.804 30.179,22.329 30.274,22.833 30.344 M349.784 30.435 C 350.420 30.499,350.676 30.601,350.745 30.819 C 350.797 30.982,351.019 31.198,351.239 31.298 C 351.458 31.398,351.686 31.630,351.744 31.815 C 351.803 31.999,351.996 32.196,352.175 32.253 C 352.535 32.367,352.602 32.594,352.740 34.167 C 352.802 34.867,352.953 35.410,353.168 35.702 C 353.654 36.363,353.662 39.659,353.178 40.274 C 352.989 40.514,352.813 41.078,352.754 41.634 C 352.565 43.404,352.499 43.645,352.169 43.749 C 351.994 43.805,351.803 44.001,351.744 44.185 C 351.686 44.369,351.450 44.591,351.220 44.678 C 350.989 44.766,350.764 44.981,350.718 45.156 C 350.598 45.613,344.938 45.990,343.647 45.627 C 343.028 45.453,343.004 45.169,343.002 37.895 C 343.000 30.185,342.961 30.377,344.541 30.295 C 345.738 30.232,348.510 30.306,349.784 30.435 M17.601 33.654 C 17.660 33.982,17.878 34.438,18.086 34.667 C 18.298 34.899,18.516 35.415,18.578 35.833 C 18.747 36.956,18.822 37.141,19.152 37.245 C 19.364 37.313,19.499 37.602,19.602 38.212 C 19.712 38.857,19.842 39.124,20.106 39.240 C 20.384 39.362,20.485 39.596,20.570 40.320 C 20.646 40.962,20.800 41.373,21.076 41.664 C 21.669 42.290,21.751 44.667,21.179 44.667 C 21.003 44.667,20.636 44.854,20.364 45.083 C 19.995 45.394,19.676 45.500,19.113 45.500 C 17.753 45.500,15.762 45.842,15.333 46.150 C 15.081 46.331,14.439 46.496,13.708 46.568 L 12.500 46.687 12.500 46.018 C 12.500 45.537,12.611 45.238,12.892 44.957 C 13.202 44.647,13.309 44.304,13.405 43.324 C 13.493 42.414,13.618 41.984,13.872 41.712 C 14.230 41.328,14.473 40.278,14.490 39.042 C 14.496 38.652,14.570 38.333,14.655 38.333 C 15.060 38.333,15.312 37.757,15.423 36.573 C 15.515 35.587,15.624 35.225,15.913 34.936 C 16.197 34.651,16.312 34.280,16.404 33.346 L 16.524 32.127 17.010 32.593 C 17.287 32.858,17.541 33.315,17.601 33.654 M40.334 34.892 C 40.641 35.150,41.115 35.321,41.726 35.392 C 42.375 35.469,42.770 35.618,43.042 35.891 C 43.266 36.114,43.740 36.329,44.157 36.396 C 44.556 36.460,45.102 36.697,45.371 36.923 C 45.647 37.155,46.088 37.341,46.388 37.350 C 47.442 37.383,47.827 37.632,46.853 37.650 C 46.359 37.659,45.496 37.751,44.936 37.854 C 43.690 38.083,42.593 37.794,42.274 37.151 C 42.120 36.840,41.875 36.716,41.185 36.598 C 40.139 36.420,39.565 35.931,39.406 35.083 C 39.271 34.364,39.621 34.292,40.334 34.892 M36.105 35.433 C 36.770 35.611,36.812 37.328,36.176 38.288 C 35.896 38.711,35.667 39.164,35.667 39.295 C 35.667 39.821,34.661 40.498,33.715 40.609 C 33.128 40.678,32.639 40.852,32.353 41.093 C 31.865 41.503,30.333 41.831,30.333 41.525 C 30.333 41.426,30.553 41.094,30.822 40.788 C 31.091 40.482,31.360 40.034,31.421 39.792 C 31.491 39.514,31.663 39.334,31.891 39.301 C 32.119 39.269,32.270 39.110,32.304 38.866 C 32.336 38.643,32.529 38.417,32.766 38.327 C 32.990 38.242,33.237 38.003,33.317 37.795 C 33.456 37.429,33.931 36.821,34.862 35.815 C 35.320 35.321,35.490 35.268,36.105 35.433 M54.248 37.062 C 55.650 36.897,56.007 37.064,56.256 38.000 C 56.268 38.046,56.365 38.294,56.472 38.553 C 56.579 38.811,56.667 39.118,56.667 39.237 C 56.667 39.473,57.196 40.050,57.936 40.619 C 58.397 40.973,58.559 40.988,62.000 40.990 C 63.971 40.991,65.621 41.000,65.667 41.009 C 65.712 41.018,65.888 41.052,66.057 41.084 C 66.690 41.203,66.604 40.552,66.925 47.685 C 66.977 48.841,67.049 50.041,67.086 50.352 C 67.122 50.662,67.190 51.524,67.236 52.266 C 67.282 53.007,67.394 53.945,67.485 54.349 C 67.694 55.281,67.878 59.085,67.744 59.695 L 67.642 60.156 57.863 60.165 C 52.484 60.170,47.925 60.216,47.730 60.267 C 47.451 60.341,47.361 60.273,47.297 59.939 C 47.193 59.396,47.433 59.167,48.105 59.167 C 48.727 59.167,49.166 58.801,49.169 58.280 C 49.170 58.080,49.394 57.279,49.667 56.500 C 49.939 55.721,50.163 54.864,50.164 54.597 C 50.166 54.329,50.385 53.654,50.651 53.097 C 50.917 52.539,51.174 51.695,51.220 51.220 C 51.270 50.713,51.452 50.159,51.662 49.876 C 51.887 49.570,52.053 49.032,52.115 48.405 C 52.203 47.498,52.549 46.564,52.888 46.316 C 52.963 46.260,53.093 45.673,53.176 45.010 C 53.289 44.111,53.434 43.678,53.747 43.306 C 54.527 42.379,54.233 39.833,53.346 39.833 C 52.848 39.833,52.167 38.785,52.167 38.021 C 52.167 37.073,52.381 36.796,52.949 37.012 C 53.173 37.097,53.757 37.120,54.248 37.062 M41.040 39.022 C 41.639 39.639,41.975 41.000,41.528 41.000 C 41.452 41.000,41.302 41.188,41.195 41.417 C 41.088 41.646,40.912 42.021,40.805 42.250 C 40.606 42.675,39.333 42.895,39.333 42.504 C 39.333 42.414,38.958 41.948,38.500 41.467 C 37.661 40.588,37.551 40.366,37.805 40.075 C 37.881 39.988,38.031 39.610,38.137 39.234 C 38.498 37.966,39.915 37.862,41.040 39.022 M51.340 40.958 C 51.843 41.591,51.711 43.507,51.104 44.402 C 50.802 44.847,50.672 45.327,50.584 46.331 C 50.519 47.065,50.403 47.667,50.328 47.667 C 49.946 47.667,49.698 48.253,49.589 49.416 C 49.496 50.408,49.389 50.763,49.093 51.058 C 48.801 51.350,48.689 51.714,48.595 52.668 C 48.501 53.613,48.379 54.012,48.070 54.380 C 47.848 54.643,47.659 55.059,47.650 55.304 L 47.633 55.750 47.491 55.250 C 47.414 54.975,47.309 54.549,47.258 54.303 C 47.207 54.057,47.024 53.811,46.851 53.756 C 46.615 53.681,46.509 53.430,46.423 52.743 C 46.350 52.161,46.170 51.664,45.926 51.373 C 45.715 51.122,45.490 50.579,45.426 50.167 C 45.250 49.037,45.177 48.859,44.846 48.754 C 44.617 48.681,44.515 48.419,44.432 47.686 C 44.351 46.966,44.218 46.616,43.921 46.337 C 43.635 46.069,43.486 45.698,43.406 45.055 C 43.300 44.205,43.008 43.667,42.655 43.667 C 42.279 43.667,42.490 42.358,42.875 42.303 C 43.116 42.269,43.269 42.116,43.303 41.875 C 43.333 41.669,43.370 41.495,43.387 41.490 C 43.403 41.484,44.714 41.421,46.300 41.349 C 48.860 41.234,49.234 41.180,49.634 40.869 C 50.274 40.370,50.898 40.402,51.340 40.958 M86.698 41.395 C 86.761 41.491,86.789 42.810,86.760 44.326 C 86.731 45.843,86.699 49.994,86.687 53.552 C 86.675 57.496,86.606 59.982,86.512 59.924 C 86.426 59.871,86.309 59.904,86.252 59.997 C 86.102 60.239,83.475 60.202,83.155 59.953 C 82.967 59.807,82.890 59.446,82.884 58.667 C 82.862 56.135,81.143 55.165,77.667 55.724 C 77.438 55.761,77.049 55.800,76.804 55.812 C 76.003 55.850,75.833 56.204,75.833 57.834 C 75.833 60.116,75.832 60.118,73.971 60.152 C 72.517 60.178,72.401 60.155,72.179 59.798 C 71.860 59.287,71.677 41.937,71.984 41.363 C 72.328 40.720,86.273 40.751,86.698 41.395 M103.694 41.372 C 103.918 41.725,103.861 44.437,103.625 44.632 C 103.510 44.727,102.887 44.802,102.239 44.799 C 100.475 44.790,100.053 44.930,99.490 45.707 L 99.000 46.383 99.000 53.075 C 99.000 60.835,99.183 60.167,97.056 60.167 C 95.005 60.167,95.167 60.828,95.167 52.453 C 95.167 44.076,95.426 44.893,92.734 44.785 C 90.341 44.690,90.417 44.753,90.417 42.881 C 90.417 40.860,89.931 41.005,96.833 40.957 C 102.559 40.917,103.439 40.970,103.694 41.372 M122.151 41.232 C 122.469 41.615,122.435 59.382,122.116 59.838 C 121.898 60.148,121.722 60.181,120.437 60.153 C 118.563 60.112,118.436 60.013,118.412 58.560 C 118.367 55.908,118.021 55.637,114.663 55.632 C 112.130 55.629,111.670 56.075,111.668 58.537 C 111.667 59.609,111.645 59.669,111.175 59.912 C 110.612 60.203,108.249 60.268,108.082 59.997 C 108.024 59.904,107.901 59.875,107.809 59.932 C 107.513 60.115,107.680 41.652,107.978 41.292 C 108.306 40.894,121.824 40.837,122.151 41.232 M161.969 41.377 C 162.297 41.649,162.172 44.456,161.823 44.677 C 161.691 44.760,160.864 44.829,159.984 44.831 C 157.569 44.835,157.767 44.137,157.813 52.462 C 157.859 60.669,158.012 60.029,155.981 60.120 C 153.908 60.214,154.096 60.868,154.000 53.215 L 153.917 46.583 153.418 45.833 C 152.747 44.824,152.781 44.839,151.139 44.836 C 149.077 44.832,149.167 44.915,149.167 43.016 C 149.167 42.127,149.238 41.329,149.325 41.242 C 149.566 41.000,161.672 41.130,161.969 41.377 M180.533 41.300 C 180.877 41.643,180.944 59.285,180.604 59.750 C 180.346 60.103,166.895 60.373,166.379 60.036 C 166.161 59.893,166.040 41.506,166.255 41.159 C 166.423 40.886,180.257 41.023,180.533 41.300 M206.745 41.553 C 206.789 41.753,206.845 43.506,206.871 45.449 L 206.917 48.982 207.491 49.574 L 208.065 50.167 210.329 50.167 C 212.580 50.167,213.333 49.995,213.333 49.484 C 213.333 49.393,213.483 49.158,213.667 48.962 C 213.978 48.627,214.000 48.373,214.000 45.072 C 214.000 42.450,214.054 41.496,214.208 41.369 C 214.436 41.181,217.424 41.035,217.592 41.204 C 217.735 41.346,217.724 53.605,217.582 53.836 C 217.508 53.955,216.921 54.007,215.942 53.982 C 214.462 53.944,213.667 54.059,213.667 54.312 C 213.667 54.380,213.419 54.706,213.116 55.036 C 212.621 55.576,211.992 56.961,212.338 56.747 C 212.415 56.699,212.408 56.905,212.323 57.204 C 212.237 57.503,212.167 58.202,212.167 58.757 C 212.167 59.320,212.078 59.855,211.967 59.967 C 211.687 60.246,209.779 60.218,209.076 59.924 L 208.497 59.682 208.495 58.049 C 208.493 54.682,207.895 53.938,205.230 53.987 C 204.215 54.006,203.553 53.946,203.402 53.822 C 203.051 53.530,203.051 41.415,203.403 41.217 C 203.973 40.896,206.661 41.167,206.745 41.553 M144.967 41.367 C 145.260 41.660,145.236 44.402,144.938 44.649 C 144.777 44.782,143.300 44.836,140.012 44.828 L 135.315 44.817 134.756 45.283 C 133.987 45.925,133.576 47.206,133.961 47.758 C 134.231 48.146,135.786 48.801,136.369 48.774 C 136.700 48.758,136.936 48.803,136.893 48.872 C 136.850 48.942,137.011 48.924,137.251 48.833 C 138.165 48.486,144.458 48.624,144.833 49.000 C 145.203 49.369,145.358 59.272,145.004 59.833 C 144.790 60.171,127.531 60.293,126.999 59.960 C 126.680 59.762,126.674 59.668,126.917 58.667 C 126.973 58.438,127.077 57.856,127.148 57.375 C 127.219 56.894,127.315 56.463,127.360 56.417 C 127.406 56.372,130.416 56.316,134.049 56.292 C 141.709 56.243,141.212 56.359,141.230 54.614 C 141.251 52.658,141.344 52.684,134.283 52.659 C 129.552 52.642,128.556 52.599,128.556 52.410 C 128.556 52.284,128.608 52.214,128.672 52.254 C 128.783 52.322,129.136 50.900,129.232 50.000 C 129.276 49.582,129.354 49.344,129.749 48.417 C 129.866 48.142,130.015 47.542,130.079 47.083 C 130.144 46.625,130.400 45.762,130.648 45.167 C 130.896 44.571,131.120 43.783,131.146 43.417 C 131.203 42.612,131.783 41.375,132.151 41.277 C 132.846 41.090,144.774 41.174,144.967 41.367 M198.989 41.403 C 199.161 41.610,199.162 51.519,198.990 52.289 C 198.943 52.502,198.785 52.568,197.892 52.747 C 196.939 52.938,196.745 53.377,196.816 55.185 C 196.826 55.424,197.008 55.878,197.223 56.194 C 197.437 56.509,197.751 57.288,197.921 57.925 C 198.091 58.562,198.298 59.130,198.383 59.188 C 198.617 59.347,198.365 59.938,198.039 59.993 C 195.565 60.410,194.167 59.681,194.167 57.975 C 194.167 57.518,194.018 57.092,193.692 56.613 C 193.430 56.230,193.167 55.599,193.107 55.211 C 192.853 53.578,191.524 52.510,190.041 52.746 C 188.724 52.955,188.449 53.740,188.489 57.184 C 188.522 60.075,188.511 60.092,186.583 60.149 C 184.670 60.207,184.842 61.138,184.826 50.627 C 184.818 45.609,184.858 41.428,184.916 41.335 C 185.095 41.044,198.746 41.110,198.989 41.403 M191.199 42.378 C 191.102 42.495,190.605 42.732,190.095 42.905 C 189.584 43.079,189.167 43.279,189.167 43.351 C 189.167 43.423,188.905 43.767,188.584 44.116 C 188.264 44.465,188.001 44.881,188.001 45.042 C 188.000 45.202,187.925 45.333,187.833 45.333 C 187.742 45.333,187.676 45.390,187.686 45.458 C 187.697 45.527,187.692 45.621,187.674 45.667 C 187.656 45.712,187.613 45.899,187.580 46.080 C 187.546 46.262,187.442 46.436,187.348 46.467 C 187.244 46.502,187.235 46.631,187.325 46.804 C 187.406 46.957,187.601 47.533,187.759 48.083 C 188.074 49.185,189.582 50.889,190.430 51.102 C 192.685 51.667,196.119 49.983,196.188 48.278 C 196.200 47.988,196.239 47.563,196.275 47.333 C 196.382 46.651,196.382 46.608,196.277 45.981 C 196.046 44.607,195.150 43.486,193.833 42.924 C 193.421 42.748,192.965 42.506,192.820 42.385 C 192.484 42.106,191.428 42.101,191.199 42.378 M26.731 43.887 C 26.870 44.403,26.852 46.217,26.706 46.424 C 25.670 47.897,23.430 47.325,23.221 45.534 C 23.054 44.101,23.753 43.383,25.156 43.545 C 25.514 43.586,25.899 43.562,26.013 43.492 C 26.316 43.305,26.620 43.472,26.731 43.887 M37.500 43.576 C 37.500 43.709,37.320 44.084,37.100 44.408 C 36.757 44.914,36.683 45.278,36.583 46.957 L 36.466 48.917 35.698 49.708 C 34.827 50.605,34.521 50.672,33.943 50.094 C 33.720 49.871,33.271 49.639,32.945 49.578 C 32.509 49.496,32.339 49.371,32.301 49.108 C 32.269 48.881,32.110 48.730,31.866 48.696 C 31.654 48.666,31.399 48.461,31.299 48.242 C 31.199 48.023,30.877 47.764,30.583 47.667 C 30.289 47.570,29.875 47.305,29.662 47.078 C 29.449 46.852,29.143 46.667,28.981 46.667 C 28.552 46.667,28.440 46.375,28.822 46.253 C 29.002 46.196,29.193 46.012,29.247 45.843 C 29.319 45.616,29.580 45.508,30.257 45.423 C 30.848 45.349,31.335 45.170,31.637 44.916 C 31.964 44.641,32.416 44.488,33.150 44.405 C 33.863 44.325,34.337 44.168,34.640 43.914 C 35.349 43.317,37.500 43.063,37.500 43.576 M114.327 43.906 C 112.562 44.201,111.084 45.510,110.835 47.000 C 110.649 48.116,110.664 49.664,110.862 49.666 C 110.923 49.666,111.021 49.881,111.078 50.143 C 111.136 50.405,111.360 50.714,111.577 50.830 C 111.794 50.946,112.005 51.168,112.045 51.322 C 112.170 51.798,114.657 52.956,115.250 52.813 C 116.358 52.547,117.646 51.899,117.942 51.459 C 118.111 51.207,118.335 51.001,118.439 51.000 C 118.645 51.000,119.167 50.014,119.167 49.625 C 119.167 49.493,119.286 49.145,119.432 48.853 C 119.638 48.440,119.653 48.268,119.501 48.084 C 119.393 47.954,119.344 47.784,119.393 47.705 C 119.531 47.481,118.996 45.830,118.685 45.519 C 117.416 44.249,115.816 43.657,114.327 43.906 M77.875 43.943 C 77.669 43.987,77.500 44.097,77.500 44.188 C 77.500 44.279,77.424 44.306,77.332 44.249 C 77.240 44.192,77.119 44.263,77.064 44.406 C 77.009 44.549,76.871 44.667,76.758 44.667 C 76.537 44.667,75.756 45.287,75.742 45.472 C 75.719 45.785,75.460 46.333,75.335 46.333 C 75.045 46.333,74.800 47.564,74.859 48.731 C 74.919 49.912,76.212 52.000,76.884 52.000 C 76.976 52.000,77.471 52.199,77.984 52.443 C 79.118 52.982,79.650 53.001,80.253 52.528 C 80.505 52.329,80.926 52.167,81.189 52.167 C 82.053 52.167,83.671 50.193,83.345 49.536 C 83.332 49.510,83.437 49.373,83.577 49.232 C 83.718 49.091,83.844 48.850,83.857 48.696 C 83.930 47.825,83.891 47.554,83.650 47.287 C 83.503 47.124,83.298 46.707,83.195 46.361 C 83.000 45.711,82.919 45.614,81.684 44.549 C 80.942 43.909,79.277 43.644,77.875 43.943 M193.539 44.725 C 193.606 44.831,193.663 44.997,193.664 45.096 C 193.666 45.195,193.854 45.451,194.083 45.667 C 194.640 46.189,194.696 47.576,194.167 47.715 C 193.984 47.763,193.773 47.968,193.698 48.170 C 193.307 49.226,191.020 49.193,189.958 48.116 C 189.341 47.490,189.260 45.531,189.846 45.378 C 190.036 45.328,190.258 45.116,190.338 44.905 C 190.552 44.342,193.199 44.193,193.539 44.725 M172.361 44.833 C 169.607 44.945,169.833 44.446,169.836 50.407 C 169.839 56.823,169.493 56.210,173.133 56.248 C 175.781 56.277,176.029 56.174,176.794 54.740 C 177.087 54.188,177.012 46.944,176.706 46.381 C 176.568 46.126,176.347 45.710,176.215 45.458 C 175.873 44.804,175.315 44.714,172.361 44.833 M57.167 45.167 C 56.983 45.350,56.833 45.714,56.833 45.975 C 56.833 46.522,56.523 47.500,56.350 47.500 C 56.230 47.500,55.833 49.209,55.833 49.728 C 55.833 49.887,55.677 50.360,55.487 50.779 C 55.296 51.197,55.034 52.053,54.903 52.681 C 54.772 53.309,54.572 54.025,54.459 54.273 C 54.296 54.630,54.297 54.738,54.460 54.792 C 54.574 54.830,54.667 54.994,54.667 55.156 C 54.667 56.122,55.191 56.275,58.591 56.300 C 63.366 56.336,63.329 56.361,63.228 53.167 C 63.002 45.965,63.072 46.397,61.929 45.125 C 61.511 44.660,57.640 44.694,57.167 45.167 M41.013 48.178 C 41.143 48.261,41.298 48.329,41.356 48.331 C 41.414 48.332,41.513 48.747,41.576 49.252 C 41.650 49.838,41.830 50.335,42.074 50.627 C 42.285 50.878,42.510 51.421,42.574 51.833 C 42.750 52.964,42.823 53.141,43.157 53.247 C 43.384 53.319,43.492 53.580,43.577 54.257 C 43.652 54.858,43.830 55.335,44.096 55.651 C 44.624 56.279,44.639 56.743,44.125 56.605 C 43.919 56.550,43.661 56.504,43.553 56.502 C 43.445 56.501,43.333 56.336,43.303 56.135 C 43.265 55.875,43.081 55.727,42.667 55.622 C 42.346 55.540,41.896 55.301,41.667 55.089 C 41.438 54.877,41.092 54.656,40.899 54.598 C 40.590 54.505,40.536 54.329,40.456 53.161 C 40.375 51.978,40.308 51.765,39.851 51.245 C 39.246 50.555,39.244 48.479,39.848 47.700 C 40.011 47.489,40.202 46.889,40.271 46.366 L 40.398 45.417 40.587 46.722 C 40.698 47.494,40.872 48.089,41.013 48.178 M80.167 46.265 C 81.487 46.724,81.796 47.284,81.584 48.830 C 81.492 49.498,81.406 49.657,81.111 49.699 C 80.891 49.730,80.730 49.889,80.699 50.105 C 80.610 50.732,78.318 50.796,77.769 50.187 C 77.219 49.576,76.815 47.758,77.153 47.408 C 77.236 47.321,77.330 47.063,77.361 46.833 C 77.401 46.534,77.534 46.401,77.833 46.361 C 78.063 46.330,78.321 46.236,78.408 46.153 C 78.642 45.927,79.318 45.971,80.167 46.265 M115.911 46.235 C 116.274 46.361,116.641 46.621,116.726 46.812 C 116.811 47.003,117.020 47.204,117.190 47.258 C 117.680 47.413,117.648 49.493,117.154 49.622 C 116.964 49.672,116.745 49.878,116.667 50.082 C 116.388 50.817,113.585 50.812,113.400 50.076 C 113.348 49.868,113.124 49.528,112.903 49.320 C 112.376 48.825,112.312 47.415,112.810 47.258 C 112.980 47.204,113.190 47.001,113.276 46.807 C 113.573 46.143,114.849 45.865,115.911 46.235 M60.667 47.616 C 60.667 49.514,61.017 52.562,61.268 52.846 C 61.396 52.991,61.500 53.422,61.500 53.805 L 61.500 54.500 59.000 54.500 L 56.500 54.500 56.500 53.902 C 56.500 53.495,56.612 53.213,56.849 53.021 C 57.202 52.735,57.479 51.732,57.493 50.691 C 57.497 50.355,57.657 49.945,57.891 49.667 C 58.169 49.337,58.314 48.898,58.392 48.155 C 58.533 46.807,58.804 46.500,59.859 46.500 L 60.667 46.500 60.667 47.616 M142.718 46.624 C 141.600 46.653,139.725 46.653,138.551 46.625 C 137.377 46.596,138.292 46.572,140.583 46.572 C 142.875 46.572,143.836 46.596,142.718 46.624 M230.063 46.664 C 229.376 46.941,229.391 47.893,230.095 48.667 C 230.303 48.896,230.540 49.346,230.622 49.667 C 230.724 50.072,230.877 50.266,231.121 50.301 C 231.856 50.409,231.823 52.639,231.075 53.341 C 230.850 53.552,230.667 53.900,230.667 54.113 C 230.667 54.327,230.478 54.666,230.248 54.866 C 229.444 55.566,229.320 57.201,230.056 57.399 C 231.312 57.736,232.500 57.380,232.500 56.666 C 232.500 56.475,232.639 56.336,232.865 56.303 C 233.121 56.266,233.274 56.081,233.375 55.687 L 233.521 55.124 233.998 55.582 C 234.261 55.834,234.540 56.309,234.618 56.638 C 234.811 57.456,236.031 57.744,237.532 57.327 C 238.471 57.066,238.608 56.088,237.760 55.701 C 237.539 55.601,237.334 55.346,237.304 55.134 C 237.270 54.894,237.119 54.731,236.901 54.700 C 236.615 54.659,236.524 54.479,236.401 53.700 C 236.273 52.897,236.192 52.742,235.875 52.697 C 235.490 52.642,235.279 51.333,235.655 51.333 C 235.984 51.333,236.298 50.818,236.405 50.102 C 236.494 49.510,236.591 49.343,236.872 49.302 C 237.101 49.269,237.273 49.080,237.355 48.772 C 237.424 48.509,237.640 48.183,237.834 48.048 C 238.662 47.468,237.653 46.501,236.219 46.500 C 235.256 46.500,234.727 46.735,234.606 47.218 C 234.365 48.178,233.333 48.872,233.333 48.075 C 233.333 47.019,231.328 46.153,230.063 46.664 M174.566 47.264 C 174.621 47.409,174.667 49.096,174.667 51.014 L 174.667 54.500 173.417 54.500 C 172.196 54.500,172.167 54.490,172.161 54.083 C 172.119 51.056,172.166 47.303,172.248 47.170 C 172.430 46.876,174.448 46.958,174.566 47.264 M350.571 48.275 C 350.655 49.377,351.065 50.118,351.663 50.249 C 351.953 50.313,352.147 50.408,352.095 50.461 C 352.042 50.513,352.297 50.725,352.661 50.932 C 353.549 51.437,354.813 52.506,354.920 52.843 C 354.967 52.993,355.192 53.201,355.420 53.304 C 355.647 53.408,355.833 53.593,355.833 53.715 C 355.833 53.837,356.058 54.104,356.333 54.307 C 356.608 54.510,356.833 54.761,356.833 54.864 C 356.833 54.967,357.008 55.284,357.221 55.568 C 357.625 56.105,357.845 56.554,357.939 57.032 C 357.970 57.187,358.117 57.637,358.266 58.032 C 358.414 58.427,358.677 59.537,358.848 60.499 C 359.020 61.461,359.229 62.436,359.314 62.666 C 359.399 62.895,359.525 63.233,359.593 63.417 C 359.662 63.600,359.748 63.930,359.785 64.151 C 359.926 64.996,361.633 67.140,362.199 67.183 C 362.319 67.192,362.642 67.234,362.917 67.276 C 363.192 67.318,363.698 67.346,364.042 67.338 C 364.385 67.331,364.667 67.402,364.667 67.496 C 364.667 67.590,364.457 67.667,364.200 67.667 C 363.943 67.667,363.643 67.757,363.533 67.867 C 363.423 67.977,363.333 68.010,363.333 67.941 C 363.333 67.873,363.148 68.016,362.921 68.261 C 362.016 69.237,357.167 68.412,357.167 67.281 C 357.167 67.167,356.942 66.877,356.667 66.635 C 356.304 66.317,356.167 66.048,356.167 65.656 C 356.167 65.359,355.969 64.697,355.726 64.185 C 355.484 63.673,355.258 62.991,355.223 62.669 C 355.063 61.178,354.971 60.667,354.864 60.667 C 354.667 60.667,354.316 59.324,354.169 58.010 C 354.092 57.322,353.947 56.732,353.848 56.699 C 353.748 56.666,353.667 56.542,353.667 56.423 C 353.667 56.305,353.554 56.114,353.417 56.000 C 353.279 55.886,353.167 55.564,353.167 55.285 C 353.167 55.005,352.942 54.378,352.667 53.891 C 352.392 53.404,352.167 52.853,352.167 52.668 C 352.167 52.482,351.944 52.097,351.672 51.812 C 351.400 51.528,351.132 51.153,351.077 50.981 C 351.022 50.808,350.872 50.667,350.743 50.667 C 350.613 50.667,350.384 50.478,350.233 50.248 C 350.083 50.018,349.784 49.785,349.570 49.732 C 349.356 49.678,349.094 49.529,348.987 49.402 C 348.781 49.153,347.425 48.723,346.708 48.679 C 346.594 48.672,346.500 48.604,346.500 48.528 C 346.500 48.451,346.594 48.383,346.708 48.375 C 346.823 48.368,347.479 48.276,348.167 48.171 C 348.854 48.065,349.549 47.960,349.711 47.937 C 349.873 47.914,350.093 47.807,350.200 47.700 C 350.461 47.439,350.514 47.521,350.571 48.275 M23.062 48.708 L 23.475 49.083 23.539 55.292 C 23.594 60.620,23.514 62.606,23.303 61.125 C 23.269 60.884,23.116 60.731,22.875 60.697 C 22.638 60.663,22.462 60.491,22.396 60.226 C 22.338 59.995,22.107 59.739,21.879 59.653 C 21.653 59.566,21.427 59.341,21.378 59.152 C 21.328 58.963,21.109 58.740,20.891 58.657 C 20.673 58.574,20.422 58.317,20.334 58.086 C 20.247 57.856,20.059 57.667,19.917 57.667 C 19.775 57.667,19.572 57.460,19.464 57.208 C 19.289 56.796,18.286 55.667,15.338 52.562 C 14.805 52.001,14.322 51.393,14.265 51.213 C 14.207 51.032,13.968 50.796,13.732 50.689 L 13.304 50.494 13.817 50.015 C 14.295 49.569,14.453 49.529,16.169 49.417 C 17.696 49.317,18.105 49.231,18.580 48.908 C 19.543 48.255,22.420 48.126,23.062 48.708 M27.417 49.461 C 27.508 49.528,27.664 49.729,27.763 49.908 C 27.861 50.087,28.154 50.289,28.412 50.358 C 28.670 50.428,29.077 50.670,29.316 50.897 C 29.555 51.124,29.940 51.357,30.173 51.414 C 30.405 51.471,30.668 51.679,30.756 51.876 C 30.845 52.073,31.155 52.294,31.448 52.369 C 32.187 52.557,32.666 53.222,32.669 54.064 C 32.672 54.830,32.766 55.029,33.250 55.294 C 33.570 55.470,33.566 55.483,33.146 55.643 C 32.894 55.738,32.664 55.986,32.604 56.226 C 32.539 56.487,32.361 56.664,32.132 56.697 C 31.901 56.730,31.728 56.903,31.667 57.161 C 31.608 57.415,31.418 57.607,31.167 57.667 C 30.918 57.725,30.725 57.918,30.667 58.167 C 30.607 58.418,30.415 58.608,30.161 58.667 C 29.872 58.735,29.735 58.894,29.698 59.205 C 29.658 59.544,29.543 59.658,29.198 59.698 C 28.852 59.738,28.738 59.852,28.698 60.198 C 28.662 60.512,28.537 60.662,28.282 60.698 C 28.081 60.727,27.843 60.919,27.752 61.125 C 27.308 62.138,27.005 61.205,27.002 58.812 C 27.000 57.739,26.937 57.322,26.750 57.167 C 26.541 56.993,26.500 56.332,26.500 53.146 L 26.500 49.333 26.875 49.336 C 27.081 49.337,27.325 49.394,27.417 49.461 M38.189 52.499 C 38.292 52.820,38.437 53.161,38.512 53.255 C 39.234 54.174,37.988 55.667,36.499 55.667 C 35.320 55.667,35.299 55.637,35.047 53.690 C 34.870 52.314,34.783 52.429,36.333 51.988 C 36.746 51.871,37.149 51.719,37.230 51.650 C 37.480 51.434,37.992 51.887,38.189 52.499 M39.870 57.757 C 40.073 57.989,40.555 58.260,40.943 58.357 C 41.467 58.489,41.661 58.627,41.699 58.892 C 41.740 59.183,41.914 59.278,42.625 59.398 C 43.554 59.556,43.667 59.706,43.224 60.195 C 43.030 60.410,42.697 60.504,42.099 60.514 C 40.359 60.543,39.300 60.755,38.991 61.136 C 38.752 61.431,38.512 61.503,37.723 61.514 C 36.049 61.538,34.860 61.751,34.370 62.113 C 34.027 62.367,33.527 62.490,32.493 62.575 C 31.718 62.638,30.952 62.728,30.792 62.773 C 30.631 62.819,30.500 62.777,30.500 62.681 C 30.500 62.585,30.681 62.461,30.902 62.405 C 31.141 62.345,31.345 62.142,31.405 61.905 C 31.462 61.676,31.668 61.464,31.886 61.409 C 32.106 61.354,32.346 61.106,32.453 60.824 C 32.554 60.554,32.759 60.333,32.906 60.333 C 33.054 60.333,33.249 60.139,33.339 59.901 C 33.430 59.663,33.659 59.427,33.848 59.378 C 34.037 59.328,34.262 59.103,34.348 58.878 C 34.434 58.652,34.659 58.427,34.848 58.378 C 35.037 58.328,35.258 58.114,35.339 57.901 C 35.473 57.550,35.605 57.509,36.785 57.457 C 37.499 57.426,38.403 57.385,38.793 57.367 C 39.369 57.340,39.571 57.413,39.870 57.757 M26.138 63.076 C 27.240 63.420,28.210 65.302,27.438 65.598 C 27.312 65.647,27.070 65.944,26.900 66.260 C 26.605 66.808,26.549 66.833,25.670 66.831 C 24.275 66.827,23.937 66.408,23.924 64.667 L 23.917 63.583 24.750 63.156 C 25.208 62.920,25.621 62.779,25.667 62.841 C 25.712 62.904,25.924 63.010,26.138 63.076 M283.773 67.551 C 283.837 67.614,283.726 67.667,283.528 67.667 C 283.329 67.667,283.167 67.598,283.167 67.515 C 283.167 67.345,283.593 67.371,283.773 67.551 " stroke="none" fill="#f4f4f4" fill-rule="evenodd"></path><path id="path2" d="" stroke="none" fill="#fc100f8" fill-rule="evenodd"></path><path id="path3" d="" stroke="none" fill="#fc100f8" fill-rule="evenodd"></path><path id="path4" d="" stroke="none" fill="#fc100f8" fill-rule="evenodd"></path></g></svg>